<?xml version="1.0" encoding="utf-8"?>
<!-- Generator: Adobe Illustrator 24.2.0, SVG Export Plug-In . SVG Version: 6.00 Build 0)  -->
<svg version="1.1" xmlns="http://www.w3.org/2000/svg" xmlns:xlink="http://www.w3.org/1999/xlink" x="0px" y="0px"
	 viewBox="0 0 28 28" style="enable-background:new 0 0 28 28;" xml:space="preserve">
<style type="text/css">
	.st0{display:none;}
	.st1{display:inline;opacity:0.31;}
	.st2{display:inline;fill:#6200EE;}
	.st3{fill:#FFFFFF;}
	.st4{fill:#03DAC6;}
	.st5{fill:#FFFFFF;stroke:#221F1F;stroke-width:0.4754;stroke-miterlimit:10;}
</style>
<g id="Layer_1" class="st0">
	<g class="st1">
		<path d="M22.98,22.05H4.52c-1.53,0-2.77-1.24-2.77-2.77V8.34c0-1.53,1.24-2.77,2.77-2.77h18.46c1.53,0,2.77,1.24,2.77,2.77v10.95
			C25.75,20.81,24.51,22.05,22.98,22.05z M4.52,6.37c-1.09,0-1.97,0.88-1.97,1.97v10.95c0,1.09,0.88,1.97,1.97,1.97h18.46
			c1.09,0,1.97-0.88,1.97-1.97V8.34c0-1.09-0.88-1.97-1.97-1.97H4.52z"/>
		<path d="M18.72,4.68c-0.79,0-1.44-0.65-1.44-1.44c0-0.8,0.65-1.44,1.44-1.44c0.8,0,1.44,0.65,1.44,1.44
			C20.16,4.03,19.51,4.68,18.72,4.68z M18.72,2.59c-0.35,0-0.64,0.29-0.64,0.64c0,0.35,0.29,0.64,0.64,0.64
			c0.35,0,0.64-0.29,0.64-0.64C19.36,2.88,19.07,2.59,18.72,2.59z"/>
		<path d="M4.04,25.8c-0.79,0-1.44-0.65-1.44-1.44s0.65-1.44,1.44-1.44c0.8,0,1.44,0.65,1.44,1.44S4.84,25.8,4.04,25.8z M4.04,23.72
			c-0.35,0-0.64,0.29-0.64,0.64C3.4,24.71,3.69,25,4.04,25c0.35,0,0.64-0.29,0.64-0.64C4.68,24,4.4,23.72,4.04,23.72z"/>
		<g>
			<path d="M12.31,13.41c-0.04,0.13-0.06,0.26-0.06,0.4c0,0.14,0.02,0.27,0.06,0.4H2.15v-0.8H12.31z"/>
			<path d="M25.35,13.41v0.8H15.19c0.04-0.13,0.06-0.26,0.06-0.4c0-0.14-0.02-0.27-0.06-0.4H25.35z"/>
		</g>
		<path d="M13.75,15.71c-1.05,0-1.9-0.85-1.9-1.9c0-1.05,0.85-1.9,1.9-1.9c1.05,0,1.9,0.85,1.9,1.9
			C15.65,14.86,14.8,15.71,13.75,15.71z M13.75,12.71c-0.61,0-1.1,0.49-1.1,1.1c0,0.61,0.49,1.1,1.1,1.1c0.61,0,1.1-0.49,1.1-1.1
			C14.85,13.21,14.36,12.71,13.75,12.71z"/>
		<path d="M11.6,11.78c-0.13,0-0.25-0.05-0.35-0.14c-0.2-0.19-0.2-0.51-0.01-0.7l0.03-0.03l2.13-2.13c0.19-0.19,0.52-0.19,0.71,0
			l2.14,2.14c0.19,0.2,0.19,0.52-0.01,0.71c-0.2,0.19-0.5,0.19-0.69,0l-1.8-1.8l-1.79,1.79C11.87,11.72,11.75,11.77,11.6,11.78
			C11.61,11.78,11.61,11.78,11.6,11.78z M11.39,11.07C11.39,11.07,11.39,11.07,11.39,11.07L11.39,11.07z"/>
		<path d="M13.75,18.87c-0.13,0-0.26-0.05-0.35-0.14l-2.15-2.15c-0.1-0.1-0.15-0.23-0.14-0.36c0-0.13,0.06-0.26,0.15-0.35
			c0.19-0.19,0.5-0.19,0.69,0l1.8,1.8l1.79-1.79c0.09-0.09,0.21-0.14,0.34-0.15c0.13-0.01,0.26,0.05,0.35,0.14
			c0.1,0.09,0.15,0.22,0.15,0.35c0,0.13-0.05,0.26-0.14,0.35l-2.15,2.15C14.01,18.82,13.88,18.87,13.75,18.87
			C13.75,18.87,13.75,18.87,13.75,18.87z M16.11,16.44L16.11,16.44C16.11,16.44,16.11,16.44,16.11,16.44z"/>
	</g>
</g>
<g id="Layer_3" class="st0">
	<rect x="-837.59" y="-745.72" class="st2" width="1600" height="1200"/>
</g>
<g id="Layer_2">
	<g>
		<path class="st3" d="M22.84,21.91H5.16c-1.46,0-2.65-1.19-2.65-2.65V8.77c0-1.46,1.19-2.65,2.65-2.65h17.69
			c1.46,0,2.65,1.19,2.65,2.65v10.49C25.5,20.72,24.31,21.91,22.84,21.91z M5.16,6.88c-1.04,0-1.89,0.85-1.89,1.89v10.49
			c0,1.04,0.85,1.89,1.89,1.89h17.69c1.04,0,1.89-0.85,1.89-1.89V8.77c0-1.04-0.85-1.89-1.89-1.89H5.16z"/>
		<path class="st4" d="M18.76,5.26c-0.76,0-1.38-0.62-1.38-1.38c0-0.76,0.62-1.38,1.38-1.38c0.76,0,1.38,0.62,1.38,1.38
			C20.14,4.64,19.52,5.26,18.76,5.26z M18.76,3.26c-0.34,0-0.62,0.28-0.62,0.62c0,0.34,0.28,0.62,0.62,0.62
			c0.34,0,0.62-0.28,0.62-0.62C19.38,3.54,19.1,3.26,18.76,3.26z"/>
		<path class="st4" d="M4.7,25.5c-0.76,0-1.38-0.62-1.38-1.38c0-0.76,0.62-1.38,1.38-1.38c0.76,0,1.38,0.62,1.38,1.38
			C6.08,24.88,5.46,25.5,4.7,25.5z M4.7,23.5c-0.34,0-0.62,0.28-0.62,0.62c0,0.34,0.28,0.62,0.62,0.62c0.34,0,0.62-0.28,0.62-0.62
			C5.31,23.78,5.04,23.5,4.7,23.5z"/>
		<g>
			<path class="st3" d="M12.62,13.63c-0.04,0.12-0.05,0.25-0.05,0.38c0,0.13,0.02,0.26,0.05,0.38H2.89v-0.77H12.62z"/>
			<path class="st3" d="M25.11,13.63v0.77h-9.73c0.04-0.12,0.05-0.25,0.05-0.38c0-0.13-0.02-0.26-0.05-0.38H25.11z"/>
		</g>
		<path class="st4" d="M14,15.84c-1,0-1.82-0.82-1.82-1.82c0-1,0.82-1.82,1.82-1.82c1,0,1.82,0.82,1.82,1.82
			C15.82,15.02,15,15.84,14,15.84z M14,12.96c-0.58,0-1.05,0.47-1.05,1.05c0,0.58,0.47,1.05,1.05,1.05c0.58,0,1.05-0.47,1.05-1.05
			C15.05,13.43,14.58,12.96,14,12.96z"/>
		<path class="st4" d="M11.94,12.07c-0.12,0-0.24-0.05-0.33-0.13c-0.19-0.18-0.19-0.48-0.01-0.67l0.03-0.03l2.04-2.04
			c0.18-0.18,0.5-0.18,0.68,0l2.05,2.05c0.19,0.19,0.18,0.49-0.01,0.68c-0.19,0.18-0.48,0.18-0.66,0L14,10.21l-1.72,1.72
			C12.2,12.01,12.08,12.06,11.94,12.07C11.95,12.07,11.95,12.07,11.94,12.07z M11.74,11.38C11.74,11.39,11.74,11.39,11.74,11.38
			L11.74,11.38z"/>
		<path class="st4" d="M14,18.86c-0.12,0-0.25-0.05-0.33-0.14l-2.06-2.06c-0.09-0.1-0.14-0.22-0.14-0.34c0-0.13,0.05-0.25,0.15-0.33
			c0.18-0.18,0.48-0.18,0.66,0L14,17.71l1.72-1.72c0.08-0.09,0.2-0.14,0.33-0.14c0.13-0.01,0.25,0.05,0.34,0.13
			c0.09,0.09,0.14,0.21,0.15,0.33c0,0.13-0.05,0.25-0.13,0.34l-2.06,2.06C14.25,18.81,14.13,18.86,14,18.86
			C14,18.86,14,18.86,14,18.86z M16.26,16.53L16.26,16.53C16.26,16.53,16.26,16.53,16.26,16.53z"/>
	</g>
</g>
</svg>
