<svg enable-background="new 0 0 28 28" viewBox="0 0 28 28" xmlns="http://www.w3.org/2000/svg"><path d="m2.38 19.03c-.76 0-1.38-.62-1.38-1.38s.62-1.38 1.38-1.38 1.38.62 1.38 1.38-.62 1.38-1.38 1.38zm0-1.99c-.34 0-.62.28-.62.62s.28.62.62.62.62-.28.62-.62-.28-.62-.62-.62z" fill="#03dac6"/><path d="m25.62 5.12c-.76 0-1.38-.62-1.38-1.38s.62-1.38 1.38-1.38 1.38.62 1.38 1.38-.62 1.38-1.38 1.38zm0-2c-.34 0-.62.28-.62.62s.28.62.62.62.62-.28.62-.62-.28-.62-.62-.62z" fill="#03dac6"/><path d="m21.4 25.64h-14.22c-1.13 0-2.04-.92-2.04-2.04v-18.21c0-1.13.92-2.04 2.04-2.04h14.22c1.13 0 2.04.92 2.04 2.04v18.21c0 1.13-.92 2.04-2.04 2.04zm-14.22-21.52c-.7 0-1.27.57-1.27 1.27v18.21c0 .7.57 1.27 1.27 1.27h14.22c.7 0 1.27-.57 1.27-1.27v-18.21c0-.7-.57-1.27-1.27-1.27z" fill="#fff"/><path d="m8.01 14.58h12.87v.51h-12.87z" fill="#fff"/><path d="m13.05 7.91c-.03-.03-.08-.04-.12-.02s-.08.03-.12.04c.07-.08.11-.18.15-.28.01-.05-.02-.1-.07-.12-.03-.01-.06 0-.08.01-.15.08-.3.14-.46.18-.33-.31-.83-.35-1.21-.09-.29.2-.45.53-.41.88-.63-.05-1.2-.36-1.59-.86-.03-.02-.06-.03-.09-.03s-.06.02-.08.05c-.13.22-.17.48-.1.72.03.13.09.24.16.35-.03-.02-.06-.04-.09-.06-.04-.04-.1-.03-.14.01-.01.02-.02.04-.02.06.01.35.2.68.51.85-.04 0-.08-.01-.12-.02-.05-.02-.1.01-.12.06-.01.02-.01.05 0 .07.13.3.4.52.73.59-.31.17-.66.25-1.01.21-.05-.01-.09.02-.1.07-.01.04 0 .09.04.11.43.26.92.39 1.42.4.48 0 .95-.14 1.34-.41.76-.5 1.23-1.41 1.17-2.22.16-.12.3-.27.42-.43.02-.04.01-.09-.01-.12z" fill="#fff"/><path d="m13.02 12.7h-4.31c-.7 0-1.26-.57-1.26-1.26v-4.32c0-.7.57-1.26 1.26-1.26h4.31c.7 0 1.26.57 1.26 1.26v4.31c0 .7-.56 1.27-1.26 1.27zm-4.31-6.33c-.41 0-.75.34-.75.75v4.31c0 .41.34.75.75.75h4.31c.41 0 .75-.34.75-.75v-4.31c0-.41-.34-.75-.75-.75z" fill="#03dac6"/><path d="m8.01 17.96h12.87v.51h-12.87z" fill="#03dac6"/><path d="m8.01 21.07h12.87v.51h-12.87z" fill="#fff"/><path d="m8.01 22.88h12.87v.51h-12.87z" fill="#03dac6"/><g fill="#fff"><path d="m15.58 6.41h5.21v.51h-5.21z"/><path d="m15.58 8.39h5.21v.51h-5.21z"/><path d="m15.58 10.24h5.21v.51h-5.21z"/><path d="m15.58 12.15h5.21v.51h-5.21z"/></g></svg>