<?xml version="1.0" encoding="UTF-8" standalone="no"?>
<!DOCTYPE svg PUBLIC "-//W3C//DTD SVG 1.1//EN" "http://www.w3.org/Graphics/SVG/1.1/DTD/svg11.dtd">
<svg width="100%" height="100%" viewBox="0 0 28 28" version="1.1" xmlns="http://www.w3.org/2000/svg" xmlns:xlink="http://www.w3.org/1999/xlink" xml:space="preserve" xmlns:serif="http://www.serif.com/" style="fill-rule:evenodd;clip-rule:evenodd;stroke-linejoin:round;stroke-miterlimit:2;">
    <g transform="matrix(0.18774,0,0,0.18774,-0.0795791,-0.0795791)">
        <g>
            <path d="M137.77,144.17C137.767,144.17 137.763,144.17 137.76,144.17C133.541,144.17 130.07,140.699 130.07,136.48C130.07,132.261 133.541,128.79 137.76,128.79C141.979,128.79 145.45,132.261 145.45,136.48C145.45,136.483 145.45,136.487 145.45,136.49C145.439,140.699 141.979,144.159 137.77,144.17ZM137.77,133.06C137.767,133.06 137.763,133.06 137.76,133.06C135.878,133.06 134.33,134.608 134.33,136.49C134.33,138.372 135.878,139.92 137.76,139.92C139.642,139.92 141.19,138.372 141.19,136.49C141.19,134.612 139.648,133.065 137.77,133.06Z" style="fill:rgb(3,218,198);fill-rule:nonzero;"/>
            <path d="M7.73,115.79C7.727,115.79 7.723,115.79 7.72,115.79C5.976,115.79 4.54,114.355 4.54,112.61C4.54,110.866 5.976,109.43 7.72,109.43C9.464,109.43 10.9,110.866 10.9,112.61C10.9,114.351 9.471,115.785 7.73,115.79ZM7.73,111.2C7.727,111.2 7.723,111.2 7.72,111.2C6.941,111.2 6.3,111.841 6.3,112.62C6.3,113.399 6.941,114.04 7.72,114.04C8.499,114.04 9.14,113.399 9.14,112.62C9.14,112.617 9.14,112.613 9.14,112.61C9.135,111.839 8.501,111.205 7.73,111.2Z" style="fill:rgb(3,218,198);fill-rule:nonzero;"/>
            <path d="M80.63,17.64C77.388,17.64 74.72,14.972 74.72,11.73C74.72,8.488 77.388,5.82 80.63,5.82C83.872,5.82 86.54,8.488 86.54,11.73C86.54,14.972 83.872,17.64 80.63,17.64ZM80.63,9.1C79.187,9.1 78,10.287 78,11.73C78,13.173 79.187,14.36 80.63,14.36C82.073,14.36 83.26,13.173 83.26,11.73C83.26,10.287 82.073,9.1 80.63,9.1Z" style="fill:rgb(3,218,198);fill-rule:nonzero;"/>
            <rect x="38.12" y="66.57" width="33.33" height="3.9" style="fill:rgb(3,218,198);"/>
            <rect x="38.12" y="76.28" width="21.59" height="3.9" style="fill:rgb(3,218,198);"/>
            <rect x="38.12" y="86.94" width="33.33" height="3.9" style="fill:white;"/>
            <path d="M138.87,21.32L64.87,21.32L64.87,24.82L86.4,24.82L86.4,121.62L23.15,121.62L23.15,24.82L33,24.82L33,21.32L22.58,21.32C20.987,21.357 19.687,22.657 19.65,24.25L19.65,122.19C19.687,123.783 20.987,125.083 22.58,125.12L138.67,125.12C140.263,125.083 141.563,123.783 141.6,122.19L141.6,24.25C141.606,24.177 141.609,24.103 141.609,24.03C141.609,22.543 140.386,21.32 138.899,21.32C138.889,21.32 138.88,21.32 138.87,21.32ZM112.15,121.62L90.09,121.62L90.09,24.82L112.15,24.82L112.15,121.62ZM138.3,121.82L115.65,121.82L115.65,24.82L138.3,24.82L138.3,121.82Z" style="fill:white;fill-rule:nonzero;"/>
            <g>
                <path d="M48.91,19.74C46.584,19.74 44.67,21.654 44.67,23.98C44.67,26.306 46.584,28.22 48.91,28.22C51.228,28.22 53.139,26.318 53.15,24C53.15,23.993 53.15,23.987 53.15,23.98C53.15,21.654 51.236,19.74 48.91,19.74C48.91,19.74 48.91,19.74 48.91,19.74ZM48.91,26.13C47.731,26.13 46.76,25.159 46.76,23.98C46.76,22.801 47.731,21.83 48.91,21.83C50.09,21.83 51.06,22.801 51.06,23.98C51.06,23.987 51.06,23.993 51.06,24C51.044,25.17 50.08,26.125 48.91,26.13Z" style="fill:rgb(3,218,198);fill-rule:nonzero;"/>
                <path d="M64.85,22.77L63.85,22.24L63.85,37.17C63.845,40.26 61.3,42.8 58.21,42.8C58.207,42.8 58.203,42.8 58.2,42.8L39.61,42.8C36.529,42.789 34,40.251 34,37.17L34,18.57C34,15.481 36.541,12.94 39.63,12.94L58.2,12.94C58.884,12.944 59.562,13.073 60.2,13.32L61.13,11.44C60.195,11.052 59.192,10.855 58.18,10.86L39.61,10.86C35.379,10.86 31.895,14.339 31.89,18.57L31.89,37.17C31.89,41.405 35.375,44.89 39.61,44.89L58.2,44.89C62.437,44.89 65.925,41.407 65.93,37.17L65.93,22.11L64.85,22.77Z" style="fill:white;fill-rule:nonzero;"/>
                <path d="M31.89,22.11L31.89,37.17C31.895,41.407 35.383,44.89 39.62,44.89L58.21,44.89C62.445,44.89 65.93,41.405 65.93,37.17L65.93,18.57C65.925,14.339 62.441,10.86 58.21,10.86L39.62,10.86C38.608,10.855 37.605,11.052 36.67,11.44L37.6,13.32C38.238,13.073 38.916,12.944 39.6,12.94L58.21,12.94C61.299,12.94 63.84,15.481 63.84,18.57L63.84,37.17C63.84,40.259 61.299,42.8 58.21,42.8L39.62,42.8C36.537,42.789 34.005,40.253 34,37.17L34,22.24L33,22.77L31.89,22.11Z" style="fill:white;fill-rule:nonzero;"/>
                <path d="M64.85,22.87L63.85,23.49L47.09,33.75L43.63,28.75L34,34.19L31.91,35.38L31.91,37.26C31.904,41.493 35.377,44.984 39.61,45L58.2,45C62.438,44.995 65.925,41.508 65.93,37.27L65.93,22.27L64.85,22.87ZM63.85,37.26C63.845,40.356 61.296,42.9 58.2,42.9L39.61,42.9C36.527,42.884 34,40.343 34,37.26L34,36.59L43,31.48L46.48,36.57L63.84,25.94L63.85,37.26Z" style="fill:rgb(3,218,198);fill-rule:nonzero;"/>
            </g>
        </g>
    </g>
</svg>
