<svg enable-background="new 0 0 28 28" viewBox="0 0 28 28" xmlns="http://www.w3.org/2000/svg"><path d="m4.88 8.5c-.76 0-1.38-.62-1.38-1.38s.62-1.38 1.38-1.38 1.38.62 1.38 1.38-.61 1.38-1.38 1.38zm0-1.99c-.34 0-.62.28-.62.62s.28.62.62.62.62-.28.62-.62-.28-.62-.62-.62z" fill="#03dac6"/><path d="m23.69 17.77c-.76 0-1.38-.62-1.38-1.38s.62-1.38 1.38-1.38 1.38.62 1.38 1.38c.01.76-.61 1.38-1.38 1.38zm0-2c-.34 0-.62.28-.62.62s.28.61.62.61.62-.28.62-.62-.28-.61-.62-.61z" fill="#03dac6"/><path d="m19.34 22.26h-14.54c-1.03 0-1.88-.84-1.88-1.88v-9.38c0-1.03.84-1.88 1.88-1.88h14.54c1.03 0 1.88.84 1.88 1.88v9.38c0 1.04-.84 1.88-1.88 1.88zm-14.54-12.37c-.61 0-1.11.5-1.11 1.11v9.38c0 .61.5 1.11 1.11 1.11h14.54c.61 0 1.11-.5 1.11-1.11v-9.38c0-.61-.5-1.11-1.11-1.11z" fill="#fff"/><path d="m16.49 9.51h-.77v-1.54c0-.26-.21-.47-.47-.47h-6.36c-.26 0-.47.21-.47.47v1.53h-.77v-1.53c0-.68.55-1.24 1.24-1.24h6.37c.68 0 1.24.55 1.24 1.24v1.54z" fill="#fff"/><path d="m12.07 20.03c-2.39 0-4.34-1.95-4.34-4.34s1.95-4.34 4.34-4.34 4.34 1.95 4.34 4.34-1.95 4.34-4.34 4.34zm0-7.91c-1.97 0-3.57 1.6-3.57 3.57s1.6 3.57 3.57 3.57 3.57-1.6 3.57-3.57-1.6-3.57-3.57-3.57z" fill="#03dac6"/><path d="m14.18 16.77h-3.09v-3.16h.77v2.39h2.32z" fill="#fff"/></svg>