<svg enable-background="new 0 0 28 28" viewBox="0 0 28 28" xmlns="http://www.w3.org/2000/svg"><path d="m17.95 21.31h-7.24v-.77c.49 0 .85-.14 1.11-.41.5-.54.43-1.45.42-1.46v-.03-6.94h-2.32c-.75 0-1.22.37-1.49.68-.15.18-.39.24-.61.15s-.36-.29-.36-.53v-4.43h13.75v4.43c0 .23-.14.44-.36.52s-.46.02-.61-.15c-.27-.31-.74-.68-1.49-.68h-2.32v6.97c0 .01-.07.92.42 1.46.26.28.62.41 1.11.41v.78zm-5.47-.77h3.71c-.59-.74-.55-1.76-.53-1.92v-7.69h3.09c.75 0 1.31.27 1.7.58v-3.17h-12.22v3.17c.39-.31.94-.58 1.7-.58h3.09v7.69c0 .16.05 1.18-.54 1.92z" fill="#fff"/><g fill="#03dac6"><path d="m5.35 6.67c-.76 0-1.38-.62-1.38-1.38s.62-1.38 1.38-1.38 1.38.62 1.38 1.38-.62 1.38-1.38 1.38zm0-1.99c-.34 0-.62.28-.62.62s.28.62.62.62.62-.28.62-.62-.28-.62-.62-.62z"/><path d="m7.84 24.09c-.76 0-1.38-.62-1.38-1.38s.62-1.38 1.38-1.38 1.38.62 1.38 1.38-.62 1.38-1.38 1.38zm0-2c-.34 0-.62.28-.62.62s.28.62.62.62.62-.28.62-.62-.28-.62-.62-.62z"/><path d="m22.65 24.09c-.76 0-1.38-.62-1.38-1.38s.62-1.38 1.38-1.38 1.38.62 1.38 1.38c.01.76-.61 1.38-1.38 1.38zm0-2c-.34 0-.62.28-.62.62s.28.62.62.62.62-.28.62-.62-.28-.62-.62-.62z"/></g></svg>