<svg enable-background="new 0 0 28 28" viewBox="0 0 28 28" xmlns="http://www.w3.org/2000/svg"><path d="m7.8 18.42c-.76 0-1.38-.62-1.38-1.38s.62-1.38 1.38-1.38 1.38.62 1.38 1.38-.62 1.38-1.38 1.38zm0-2c-.34 0-.62.28-.62.62s.28.62.62.62.62-.28.62-.62-.28-.62-.62-.62z" fill="#03dac6"/><path d="m20.2 9.55c-.76 0-1.38-.62-1.38-1.38s.62-1.38 1.38-1.38 1.38.62 1.38 1.38-.62 1.38-1.38 1.38zm0-2c-.34 0-.62.28-.62.62s.28.62.62.62.62-.28.62-.62-.28-.62-.62-.62z" fill="#03dac6"/><path d="m17.19 17.17c-.24-.76-.94-1.27-1.74-1.27-.4 0-.73-.33-.73-.73s.33-.73.73-.73.73.33.73.73c0 .3.25.54.54.54s.54-.25.54-.54c0-.8-.52-1.5-1.27-1.74v-.24c0-.3-.25-.54-.54-.54-.3 0-.54.25-.54.54v.24c-.96.3-1.49 1.32-1.19 2.28.24.76.94 1.27 1.74 1.27.4 0 .73.33.73.73s-.33.73-.73.73-.73-.33-.73-.73c0-.3-.25-.54-.54-.54-.3 0-.54.25-.54.54 0 .8.52 1.5 1.27 1.74v.27c0 .3.25.54.54.54.3 0 .54-.25.54-.54v-.27c.96-.3 1.49-1.32 1.19-2.28z" fill="#fff"/><path d="m16.55 7.42c-.06-.05-.12-.09-.18-.13v.99l4.03 3.54v9.86c0 .5-.41.91-.91.91h-8.07c-.5 0-.91-.41-.91-.91v-9.86l4.03-3.54v-.99c-.06.04-.12.08-.18.13l-4.62 4.06v10.21c0 .92.75 1.67 1.67 1.67h8.07c.92 0 1.67-.75 1.67-1.67v-10.22z" fill="#fff"/><path d="m15.46 11.69c-.72 0-1.3-.58-1.3-1.3v-4.44c0-.72.58-1.3 1.3-1.3s1.3.58 1.3 1.3v4.45c-.01.71-.59 1.29-1.3 1.29zm0-6.28c-.29 0-.53.24-.53.53v4.45c0 .29.24.53.53.53s.53-.24.53-.53v-4.44c0-.3-.24-.54-.53-.54z" fill="#03dac6"/></svg>