<svg clip-rule="evenodd" fill-rule="evenodd" stroke-linejoin="round" stroke-miterlimit="2" viewBox="0 0 28 28" xmlns="http://www.w3.org/2000/svg"><g fill-rule="nonzero"><path d="m6.51 22.12c-.76 0-1.38-.62-1.38-1.38s.62-1.38 1.38-1.38 1.38.62 1.38 1.38-.62 1.38-1.38 1.38zm0-2c-.34 0-.62.28-.62.62s.28.62.62.62.62-.28.62-.62-.28-.62-.62-.62z" fill="#03dac6"/><path d="m11.43 22.25c-.1 0-.21-.02-.31-.05-.35-.13-.58-.46-.58-.83v-3.68h-1.7c-.94 0-1.71-.77-1.71-1.71v-8.51c0-.94.77-1.71 1.71-1.71h12.33c.94 0 1.71.77 1.71 1.71v8.51c0 .94-.77 1.71-1.71 1.71h-5.48l-3.58 4.25c-.18.19-.43.31-.68.31zm-2.59-15.73c-.52 0-.95.42-.95.95v8.51c0 .52.42.95.95.95h2.47v4.44c0 .07.04.1.08.11s.09.02.13-.04l3.8-4.52h5.84c.52 0 .95-.42.95-.95v-8.5c0-.52-.42-.95-.95-.95z" fill="#fff"/><path d="m12.48 14.86c-1.77 0-3.21-1.44-3.21-3.21s1.44-3.21 3.21-3.21 3.21 1.44 3.21 3.21-1.44 3.21-3.21 3.21zm0-5.65c-1.35 0-2.44 1.1-2.44 2.44 0 1.35 1.1 2.44 2.44 2.44 1.35 0 2.44-1.1 2.44-2.44.01-1.34-1.09-2.44-2.44-2.44z" fill="#03dac6"/><path d="m18.66 9.77h-.02l-1.06.5-.2-.97 1.46-.68h1.07v5.53h-1.25z" fill="#fff"/></g></svg>