<svg enable-background="new 0 0 28 28" viewBox="0 0 28 28" xmlns="http://www.w3.org/2000/svg"><g fill="#03dac6"><path d="m14.3 4.03c-.76 0-1.38-.62-1.38-1.38s.62-1.38 1.38-1.38 1.38.62 1.38 1.38-.62 1.38-1.38 1.38zm0-2c-.34 0-.62.28-.62.62s.28.62.62.62.62-.28.62-.62-.28-.62-.62-.62z"/><path d="m24.69 19.51c-.76 0-1.38-.62-1.38-1.38s.62-1.38 1.38-1.38 1.38.62 1.38 1.38-.62 1.38-1.38 1.38zm0-2c-.34 0-.62.28-.62.62s.28.62.62.62.62-.28.62-.62-.28-.62-.62-.62z"/><path d="m5.22 9.11c-.76 0-1.38-.62-1.38-1.38s.62-1.38 1.38-1.38 1.38.62 1.38 1.38-.62 1.38-1.38 1.38zm0-2c-.34 0-.62.28-.62.62s.28.62.62.62.62-.28.62-.62-.28-.62-.62-.62z"/></g><path d="m6.99 11.02h-3.54c-.84 0-1.52-.68-1.52-1.52v-3.55c0-.84.68-1.52 1.52-1.52h3.54c.84 0 1.52.68 1.52 1.52v3.55c.01.84-.68 1.52-1.52 1.52zm-3.54-5.82c-.42 0-.76.34-.76.76v3.54c0 .42.34.76.76.76h3.54c.42 0 .76-.34.76-.76v-3.55c0-.42-.34-.76-.76-.76h-3.54z" fill="#fff"/><path d="m5.22 16.96c-.76 0-1.38-.62-1.38-1.38s.62-1.38 1.38-1.38 1.38.62 1.38 1.38-.62 1.38-1.38 1.38zm0-1.99c-.34 0-.62.28-.62.62s.28.62.62.62.62-.28.62-.62-.28-.62-.62-.62z" fill="#03dac6"/><path d="m6.99 18.88h-3.54c-.84 0-1.52-.68-1.52-1.52v-3.54c0-.84.68-1.52 1.52-1.52h3.54c.84 0 1.52.68 1.52 1.52v3.54c.01.83-.68 1.52-1.52 1.52zm-3.54-5.83c-.42 0-.76.34-.76.76v3.54c0 .42.34.76.76.76h3.54c.42 0 .76-.34.76-.76v-3.54c0-.42-.34-.76-.76-.76z" fill="#fff"/><path d="m5.22 24.82c-.76 0-1.38-.62-1.38-1.38s.62-1.38 1.38-1.38 1.38.62 1.38 1.38-.62 1.38-1.38 1.38zm0-2c-.34 0-.62.28-.62.62s.28.62.62.62.62-.28.62-.62-.28-.62-.62-.62z" fill="#03dac6"/><g fill="#fff"><path d="m6.99 26.73h-3.54c-.84 0-1.52-.68-1.52-1.52v-3.54c0-.84.68-1.52 1.52-1.52h3.54c.84 0 1.52.68 1.52 1.52v3.54c.01.84-.68 1.52-1.52 1.52zm-3.54-5.82c-.42 0-.76.34-.76.76v3.54c0 .42.34.76.76.76h3.54c.42 0 .76-.34.76-.76v-3.54c0-.42-.34-.76-.76-.76z"/><path d="m9.89 7.34h11.07v.77h-11.07z"/><path d="m9.89 15.2h11.07v.77h-11.07z"/><path d="m9.89 23.05h11.07v.77h-11.07z"/></g></svg>