<svg enable-background="new 0 0 28 28" viewBox="0 0 28 28" xmlns="http://www.w3.org/2000/svg"><path d="m5.97 21.2c-.76 0-1.38-.62-1.38-1.38s.62-1.38 1.38-1.38 1.38.62 1.38 1.38-.62 1.38-1.38 1.38zm0-2c-.34 0-.62.28-.62.62s.28.62.62.62.62-.28.62-.62-.28-.62-.62-.62z" fill="#03dac6"/><path d="m18.78 11.42c-1.27 0-2.31-1.04-2.31-2.31s1.04-2.31 2.31-2.31 2.31 1.04 2.31 2.31-1.03 2.31-2.31 2.31zm0-3.85c-.85 0-1.54.69-1.54 1.54s.69 1.54 1.54 1.54 1.54-.69 1.54-1.54c.01-.85-.68-1.54-1.54-1.54z" fill="#03dac6"/><path d="m21.79 17.3h-14.58c-.89 0-1.62-.73-1.62-1.62v-1.41c0-.89.73-1.62 1.62-1.62h14.59c.89 0 1.62.73 1.62 1.62v1.41c-.01.9-.73 1.62-1.63 1.62zm-14.58-3.87c-.47 0-.85.38-.85.85v1.41c0 .47.38.85.85.85h14.59c.47 0 .85-.38.85-.85v-1.41c0-.47-.38-.85-.85-.85z" fill="#fff"/></svg>