<svg enable-background="new 0 0 28 28" viewBox="0 0 28 28" xmlns="http://www.w3.org/2000/svg"><path d="m20.07 21.8h-13.34c-.57 0-1.04-.47-1.04-1.04v-.8c0-.57.47-1.04 1.04-1.04h13.34c.57 0 1.04.47 1.04 1.04v.8c-.01.58-.47 1.04-1.04 1.04zm-13.34-2.11c-.15 0-.27.12-.27.27v.8c0 .15.12.27.27.27h13.34c.15 0 .27-.12.27-.27v-.8c0-.15-.12-.27-.27-.27z" fill="#fff"/><path d="m10.38 17.95c-.76 0-1.38-.62-1.38-1.38s.62-1.38 1.38-1.38 1.38.62 1.38 1.38-.62 1.38-1.38 1.38zm0-2c-.34 0-.62.28-.62.62s.28.62.62.62.62-.28.62-.62-.28-.62-.62-.62z" fill="#03dac6"/><path d="m20.93 8.96c-.76 0-1.38-.62-1.38-1.38s.62-1.38 1.38-1.38 1.38.62 1.38 1.38-.62 1.38-1.38 1.38zm0-1.99c-.34 0-.62.28-.62.62s.28.62.62.62.62-.28.62-.62c-.01-.35-.28-.62-.62-.62z" fill="#03dac6"/><g fill="#fff"><path d="m16.05 17.25c-1.51 0-2.74-1.23-2.74-2.74s1.23-2.74 2.74-2.74 2.74 1.23 2.74 2.74c-.01 1.52-1.24 2.74-2.74 2.74zm0-4.7c-1.09 0-1.97.88-1.97 1.97s.88 1.97 1.97 1.97 1.97-.88 1.97-1.97c-.01-1.09-.89-1.97-1.97-1.97z"/><path d="m9.98 12.8c-1.51 0-2.74-1.23-2.74-2.74s1.23-2.74 2.74-2.74 2.74 1.23 2.74 2.74c-.01 1.51-1.24 2.74-2.74 2.74zm0-4.7c-1.09 0-1.97.88-1.97 1.97s.88 1.97 1.97 1.97 1.97-.88 1.97-1.97-.89-1.97-1.97-1.97z"/></g></svg>