<svg enable-background="new 0 0 28 28" viewBox="0 0 28 28" xmlns="http://www.w3.org/2000/svg"><g fill="#03dac6"><path d="m21.83 6.55c-.76 0-1.38-.62-1.38-1.38s.62-1.38 1.38-1.38 1.38.62 1.38 1.38-.62 1.38-1.38 1.38zm0-2c-.34 0-.62.28-.62.62s.28.62.62.62.62-.28.62-.62-.28-.62-.62-.62z"/><path d="m4.04 20.52c-.76 0-1.38-.62-1.38-1.38s.62-1.38 1.38-1.38 1.38.62 1.38 1.38c.01.76-.61 1.38-1.38 1.38zm0-2c-.34 0-.62.28-.62.62s.28.62.62.62.62-.28.62-.62-.28-.62-.62-.62z"/><path d="m12.03 15.35h-3.44c-1.19 0-2.16-.97-2.16-2.16v-3.44c0-1.19.97-2.16 2.16-2.16h3.45c1.19 0 2.16.97 2.16 2.16v3.45c-.01 1.19-.98 2.15-2.17 2.15zm-3.44-6.99c-.77 0-1.39.63-1.39 1.39v3.45c0 .77.63 1.39 1.39 1.39h3.45c.77 0 1.39-.63 1.39-1.39v-3.45c0-.77-.63-1.39-1.39-1.39z"/></g><path d="m21.18 15.35h-3.45c-1.19 0-2.16-.97-2.16-2.16v-3.44c0-1.19.97-2.16 2.16-2.16h3.45c1.19 0 2.16.97 2.16 2.16v3.45c0 1.19-.97 2.15-2.16 2.15zm-3.45-6.99c-.77 0-1.39.63-1.39 1.39v3.45c0 .77.63 1.39 1.39 1.39h3.45c.77 0 1.39-.63 1.39-1.39v-3.45c0-.77-.63-1.39-1.39-1.39z" fill="#fff"/><path d="m12.03 24.21h-3.44c-1.19 0-2.16-.97-2.16-2.16v-3.45c0-1.19.97-2.16 2.16-2.16h3.45c1.19 0 2.16.97 2.16 2.16v3.45c-.01 1.2-.98 2.16-2.17 2.16zm-3.44-6.99c-.77 0-1.39.63-1.39 1.39v3.45c0 .77.63 1.39 1.39 1.39h3.45c.77 0 1.39-.63 1.39-1.39v-3.45c0-.77-.63-1.39-1.39-1.39z" fill="#fff"/><path d="m19.45 23.96c-2.07 0-3.76-1.69-3.76-3.76s1.69-3.76 3.76-3.76 3.76 1.69 3.76 3.76c0 2.08-1.68 3.76-3.76 3.76zm0-6.74c-1.65 0-2.99 1.34-2.99 2.99s1.34 2.99 2.99 2.99 2.99-1.34 2.99-2.99c.01-1.65-1.34-2.99-2.99-2.99z" fill="#03dac6"/></svg>