<svg enable-background="new 0 0 28 28" viewBox="0 0 28 28" xmlns="http://www.w3.org/2000/svg"><path d="m21.74 7.84c-.76 0-1.38-.62-1.38-1.38s.62-1.38 1.38-1.38 1.38.62 1.38 1.38-.62 1.38-1.38 1.38zm0-1.99c-.34 0-.62.28-.62.62s.28.62.62.62.62-.28.62-.62-.28-.62-.62-.62z" fill="#03dac6"/><path d="m4.26 21.93c-.76 0-1.38-.62-1.38-1.38s.62-1.38 1.38-1.38 1.38.62 1.38 1.38c.01.76-.61 1.38-1.38 1.38zm0-2c-.34 0-.62.28-.62.62s.28.62.62.62.62-.28.62-.62-.28-.62-.62-.62z" fill="#03dac6"/><path d="m23.08 25.15h-14.22c-1.13 0-2.04-.92-2.04-2.04v-18.21c0-1.13.92-2.04 2.04-2.04h14.22c1.13 0 2.04.92 2.04 2.04v18.2c0 1.13-.92 2.05-2.04 2.05zm-14.22-21.53c-.7 0-1.27.57-1.27 1.27v18.21c0 .7.57 1.27 1.27 1.27h14.22c.7 0 1.27-.57 1.27-1.27v-18.2c0-.7-.57-1.27-1.27-1.27h-14.22z" fill="#fff"/><path d="m9.53 10.01h12.87v.77h-12.87z" fill="#fff"/><path d="m9.53 16.8h12.87v.51h-12.87z" fill="#03dac6"/><g fill="#fff"><path d="m9.53 13.34h.64v.77h-.64z"/><path d="m20.48 14.11h-1.29v-.77h1.29zm-2.58 0h-1.29v-.77h1.29zm-2.57 0h-1.29v-.77h1.29zm-2.58 0h-1.29v-.77h1.29z"/><path d="m21.77 13.34h.64v.77h-.64z"/><path d="m9.53 18.35h12.87v.51h-12.87z"/></g></svg>