<svg xmlns="http://www.w3.org/2000/svg" width="21" height="21" viewBox="0 0 21 21" fill="none"><rect width="21" height="21" fill="white"></rect><path d="M11.6793 8.09984C11.6784 8.24839 10.6826 9.07767 10.4918 9.0783C10.3014 9.07829 9.33605 8.27952 9.33626 8.089C9.33698 7.89874 9.34201 6.36528 9.34201 6.36528C9.34201 6.36528 9.3316 6.17167 9.19909 6.30317C8.77205 6.72633 7.91661 7.59933 7.91439 8.43483L7.91347 8.6067C7.91357 9.69864 8.78001 10.537 9.85265 10.5385L11.1485 10.5367C12.2214 10.5371 13.0912 9.6996 13.0937 8.6061L13.0941 8.43475C13.0969 7.62554 12.257 6.75913 11.8282 6.3262C11.6921 6.18753 11.6796 6.37716 11.6796 6.37716C11.6796 6.37716 11.6794 7.95128 11.6793 8.09984Z" stroke="#52A300" stroke-width="0.5" stroke-miterlimit="10"></path><path d="M19.8516 7.875H18.3865C18.3524 7.87475 18.3192 7.86386 18.2915 7.84387C18.2639 7.82387 18.2432 7.79576 18.2323 7.76344C18.1369 7.49263 18.0274 7.22703 17.9041 6.96773C17.8888 6.93714 17.8833 6.90249 17.8886 6.86866C17.8939 6.83482 17.9097 6.80349 17.9337 6.77906L18.9689 5.74219C19.0756 5.63554 19.1602 5.50894 19.2179 5.36959C19.2756 5.23025 19.3053 5.0809 19.3053 4.93008C19.3053 4.77925 19.2756 4.62991 19.2179 4.49056C19.1602 4.35122 19.0756 4.22461 18.9689 4.11797L16.8804 2.03109C16.7737 1.92444 16.6471 1.83984 16.5078 1.78211C16.3685 1.72439 16.2191 1.69468 16.0683 1.69468C15.9175 1.69468 15.7681 1.72439 15.6288 1.78211C15.4894 1.83984 15.3628 1.92444 15.2562 2.03109L14.2209 3.06633C14.1965 3.09033 14.1652 3.10608 14.1313 3.11137C14.0975 3.11667 14.0629 3.11124 14.0323 3.09586C13.773 2.97257 13.5074 2.86304 13.2366 2.76773C13.2042 2.75682 13.1761 2.7361 13.1561 2.70846C13.1361 2.68082 13.1253 2.64763 13.125 2.61352V1.14844C13.125 0.843853 13.004 0.551743 12.7886 0.33637C12.5733 0.120996 12.2811 0 11.9766 0H9.02344C8.71885 0 8.42674 0.120996 8.21137 0.33637C7.996 0.551743 7.875 0.843853 7.875 1.14844V2.61352C7.87475 2.64763 7.86386 2.68082 7.84387 2.70846C7.82387 2.7361 7.79576 2.75682 7.76344 2.76773C7.49263 2.86308 7.22703 2.97261 6.96773 3.09586C6.93714 3.11124 6.90249 3.11667 6.86866 3.11137C6.83482 3.10608 6.80349 3.09033 6.77906 3.06633L5.74219 2.03109C5.63554 1.92444 5.50894 1.83984 5.36959 1.78211C5.23025 1.72439 5.0809 1.69468 4.93008 1.69468C4.77925 1.69468 4.62991 1.72439 4.49056 1.78211C4.35122 1.83984 4.22461 1.92444 4.11797 2.03109L2.03109 4.11961C1.92444 4.22625 1.83984 4.35286 1.78211 4.4922C1.72439 4.63155 1.69468 4.78089 1.69468 4.93172C1.69468 5.08254 1.72439 5.23189 1.78211 5.37123C1.83984 5.51058 1.92444 5.63718 2.03109 5.74383L3.06633 6.77906C3.09033 6.80349 3.10608 6.83482 3.11137 6.86866C3.11667 6.90249 3.11124 6.93714 3.09586 6.96773C2.97257 7.22701 2.86304 7.49262 2.76773 7.76344C2.75682 7.79576 2.7361 7.82387 2.70846 7.84387C2.68082 7.86386 2.64763 7.87475 2.61352 7.875H1.14844C0.843853 7.875 0.551743 7.996 0.33637 8.21137C0.120996 8.42674 0 8.71885 0 9.02344L0 11.9766C0 12.2811 0.120996 12.5733 0.33637 12.7886C0.551743 13.004 0.843853 13.125 1.14844 13.125H2.61352C2.64763 13.1253 2.68082 13.1361 2.70846 13.1561C2.7361 13.1761 2.75682 13.2042 2.76773 13.2366C2.86308 13.5074 2.97261 13.773 3.09586 14.0323C3.11124 14.0629 3.11667 14.0975 3.11137 14.1313C3.10608 14.1652 3.09033 14.1965 3.06633 14.2209L2.03109 15.2578C1.92444 15.3645 1.83984 15.4911 1.78211 15.6304C1.72439 15.7697 1.69468 15.9191 1.69468 16.0699C1.69468 16.2207 1.72439 16.3701 1.78211 16.5094C1.83984 16.6488 1.92444 16.7754 2.03109 16.882L4.11961 18.9705C4.22625 19.0772 4.35286 19.1618 4.4922 19.2195C4.63155 19.2772 4.78089 19.307 4.93172 19.307C5.08254 19.307 5.23189 19.2772 5.37123 19.2195C5.51058 19.1618 5.63718 19.0772 5.74383 18.9705L6.77906 17.9353C6.80349 17.9113 6.83482 17.8956 6.86866 17.8903C6.90249 17.885 6.93714 17.8904 6.96773 17.9058C7.22701 18.0291 7.49262 18.1386 7.76344 18.2339C7.79576 18.2448 7.82387 18.2655 7.84387 18.2932C7.86386 18.3208 7.87475 18.354 7.875 18.3881V19.8516C7.875 20.1561 7.996 20.4483 8.21137 20.6636C8.42674 20.879 8.71885 21 9.02344 21H11.9766C12.2811 21 12.5733 20.879 12.7886 20.6636C13.004 20.4483 13.125 20.1561 13.125 19.8516V18.3865C13.1253 18.3524 13.1361 18.3192 13.1561 18.2915C13.1761 18.2639 13.2042 18.2432 13.2366 18.2323C13.5074 18.1369 13.773 18.0274 14.0323 17.9041C14.0629 17.8888 14.0975 17.8833 14.1313 17.8886C14.1652 17.8939 14.1965 17.9097 14.2209 17.9337L15.2578 18.9689C15.3645 19.0756 15.4911 19.1602 15.6304 19.2179C15.7697 19.2756 15.9191 19.3053 16.0699 19.3053C16.2207 19.3053 16.3701 19.2756 16.5094 19.2179C16.6488 19.1602 16.7754 19.0756 16.882 18.9689L18.9705 16.8804C19.0772 16.7737 19.1618 16.6471 19.2195 16.5078C19.2772 16.3685 19.307 16.2191 19.307 16.0683C19.307 15.9175 19.2772 15.7681 19.2195 15.6288C19.1618 15.4894 19.0772 15.3628 18.9705 15.2562L17.9353 14.2209C17.9113 14.1965 17.8956 14.1652 17.8903 14.1313C17.885 14.0975 17.8904 14.0629 17.9058 14.0323C18.0291 13.773 18.1386 13.5074 18.2339 13.2366C18.2448 13.2042 18.2655 13.1761 18.2932 13.1561C18.3208 13.1361 18.354 13.1253 18.3881 13.125H19.8516C20.1561 13.125 20.4483 13.004 20.6636 12.7886C20.879 12.5733 21 12.2811 21 11.9766V9.02344C21 8.71885 20.879 8.42674 20.6636 8.21137C20.4483 7.996 20.1561 7.875 19.8516 7.875ZM20.0156 11.9766C20.0156 12.0201 19.9983 12.0618 19.9676 12.0926C19.9368 12.1233 19.8951 12.1406 19.8516 12.1406H18.3865C18.1485 12.1409 17.9165 12.2151 17.7225 12.3529C17.5286 12.4908 17.3822 12.6854 17.3037 12.9101C17.2197 13.1479 17.1233 13.3812 17.0149 13.609C16.911 13.8237 16.8764 14.0654 16.9161 14.3006C16.9558 14.5358 17.0678 14.7528 17.2364 14.9215L18.2716 15.9567C18.3022 15.9875 18.3193 16.029 18.3193 16.0724C18.3193 16.1157 18.3022 16.1573 18.2716 16.188L16.1848 18.2733C16.154 18.3038 16.1124 18.321 16.0691 18.321C16.0258 18.321 15.9842 18.3038 15.9534 18.2733L14.9182 17.238C14.7495 17.0694 14.5325 16.9575 14.2973 16.9178C14.0621 16.8781 13.8204 16.9126 13.6057 17.0166C13.3774 17.125 13.1436 17.2214 12.9052 17.3053C12.6808 17.3841 12.4865 17.5306 12.349 17.7246C12.2114 17.9185 12.1375 18.1504 12.1373 18.3881V19.8516C12.1373 19.8951 12.1201 19.9368 12.0893 19.9676C12.0585 19.9983 12.0168 20.0156 11.9733 20.0156H9.02344C8.97993 20.0156 8.9382 19.9983 8.90743 19.9676C8.87666 19.9368 8.85937 19.8951 8.85937 19.8516V18.3865C8.85911 18.1485 8.78493 17.9165 8.64709 17.7225C8.50925 17.5286 8.31455 17.3822 8.08992 17.3037C7.85206 17.2197 7.61877 17.1233 7.39102 17.0149C7.17633 16.911 6.93461 16.8764 6.69941 16.9161C6.4642 16.9558 6.2472 17.0678 6.07852 17.2364L5.04328 18.2716C5.01254 18.3022 4.97096 18.3193 4.92762 18.3193C4.88427 18.3193 4.84269 18.3022 4.81195 18.2716L2.72672 16.1848C2.69616 16.154 2.67901 16.1124 2.67901 16.0691C2.67901 16.0258 2.69616 15.9842 2.72672 15.9534L3.76195 14.9182C3.9306 14.7495 4.04254 14.5325 4.08223 14.2973C4.12192 14.0621 4.08739 13.8204 3.98344 13.6057C3.87496 13.3774 3.77857 13.1436 3.69469 12.9052C3.61543 12.6817 3.46896 12.4883 3.27538 12.3514C3.0818 12.2145 2.8506 12.1409 2.61352 12.1406H1.14844C1.10493 12.1406 1.0632 12.1233 1.03243 12.0926C1.00166 12.0618 0.984375 12.0201 0.984375 11.9766V9.02344C0.984375 8.97993 1.00166 8.9382 1.03243 8.90743C1.0632 8.87666 1.10493 8.85937 1.14844 8.85937H2.61352C2.85148 8.85911 3.08348 8.78493 3.27746 8.64709C3.47143 8.50925 3.6178 8.31455 3.69633 8.08992C3.78027 7.85206 3.87666 7.61877 3.98508 7.39102C4.08903 7.17633 4.12356 6.93461 4.08387 6.69941C4.04418 6.4642 3.93224 6.2472 3.76359 6.07852L2.72836 5.04328C2.6978 5.01254 2.68065 4.97096 2.68065 4.92762C2.68065 4.88427 2.6978 4.84269 2.72836 4.81195L4.81523 2.72672C4.84597 2.69616 4.88756 2.67901 4.9309 2.67901C4.97424 2.67901 5.01582 2.69616 5.04656 2.72672L6.0818 3.76195C6.25048 3.9306 6.46749 4.04254 6.70269 4.08223C6.93789 4.12192 7.17961 4.08739 7.3943 3.98344C7.62258 3.87496 7.85642 3.77857 8.09484 3.69469C8.31829 3.61543 8.51174 3.46896 8.64862 3.27538C8.78551 3.0818 8.85913 2.8506 8.85937 2.61352V1.14844C8.85937 1.10493 8.87666 1.0632 8.90743 1.03243C8.9382 1.00166 8.97993 0.984375 9.02344 0.984375H11.9766C12.0201 0.984375 12.0618 1.00166 12.0926 1.03243C12.1233 1.0632 12.1406 1.10493 12.1406 1.14844V2.61352C12.1409 2.85148 12.2151 3.08348 12.3529 3.27746C12.4908 3.47143 12.6854 3.6178 12.9101 3.69633C13.1479 3.78027 13.3812 3.87666 13.609 3.98508C13.8237 4.08903 14.0654 4.12356 14.3006 4.08387C14.5358 4.04418 14.7528 3.93224 14.9215 3.76359L15.9567 2.72836C15.9875 2.6978 16.029 2.68065 16.0724 2.68065C16.1157 2.68065 16.1573 2.6978 16.188 2.72836L18.2766 4.81687C18.3071 4.84761 18.3243 4.8892 18.3243 4.93254C18.3243 4.97588 18.3071 5.01746 18.2766 5.0482L17.2413 6.08344C17.0727 6.25212 16.9607 6.46913 16.921 6.70433C16.8814 6.93953 16.9159 7.18126 17.0198 7.39594C17.1283 7.62422 17.2247 7.85806 17.3086 8.09648C17.3874 8.32081 17.5339 8.51515 17.7278 8.65268C17.9218 8.79021 18.1536 8.86415 18.3914 8.8643H19.8516C19.8951 8.8643 19.9368 8.88158 19.9676 8.91235C19.9983 8.94312 20.0156 8.98485 20.0156 9.02836V11.9766Z" fill="#034078"></path><rect x="9.25" y="11.25" width="2.5" height="5.5" rx="0.75" fill="white" stroke="#52A300" stroke-width="0.5"></rect></svg>