<svg xmlns="http://www.w3.org/2000/svg" width="24" height="24" viewBox="0 0 24 24" fill="none"><rect width="24" height="24" fill="#F5F5F5"></rect><path d="M21.4 11C23 9.4 23.5 7 22.9 4.9C22.8 4.5 22.3 4.4 22.1 4.7L18.6 8.2L15.8 5.4L19.3 1.9C19.6 1.6 19.5 1.2 19.1 1.1C17 0.400001 14.6 0.900001 13 2.6C11.2 4.4 10.8 7.2 11.8 9.4L1.8 18.3C0.600003 19.4 0.500003 21.3 1.7 22.4C2.9 23.6 4.7 23.5 5.8 22.3L14.7 12.3C16.9 13.3 19.6 12.9 21.4 11Z" fill="#52A300"></path><path d="M1 3.3L3.1 6.8H4.6L8.2 10.5L9.5 9.3V9L5.9 5.4V4L2.4 1.9L1 3.3Z" fill="#034078"></path><path d="M17.7752 14.7H18.5752L22.4752 18.2C23.6752 19.3 23.7752 21.1 22.5752 22.3C21.4752 23.5 19.5752 23.4 18.4752 22.2L13.7752 16.9L15.8752 14.5C16.4752 14.6 17.0752 14.7 17.7752 14.7Z" fill="#034078"></path></svg>