<svg xmlns="http://www.w3.org/2000/svg" width="15" height="15" viewBox="0 0 15 15" fill="none"><rect width="15" height="15" fill="white"></rect><path d="M3.88001 6.24001C3.88001 6.47834 3.70001 6.67334 3.48001 6.67334H2.80001C2.58001 6.67334 2.40001 6.47834 2.40001 6.24001V5.59001C2.40001 5.35168 2.58001 5.15668 2.80001 5.15668H3.48001C3.70001 5.15668 3.88001 5.35168 3.88001 5.59001V6.24001Z" fill="#034078"></path><path d="M3.88001 9.05667C3.88001 9.29501 3.70001 9.49001 3.48001 9.49001H2.80001C2.58001 9.49001 2.40001 9.29501 2.40001 9.05667V8.40667C2.40001 8.16834 2.58001 7.97334 2.80001 7.97334H3.48001C3.70001 7.97334 3.88001 8.16834 3.88001 8.40667V9.05667Z" fill="#034078"></path><path d="M9.59999 9.05667C9.59999 9.29501 9.41999 9.49001 9.19999 9.49001H5.47999C5.25999 9.49001 5.07999 9.29501 5.07999 9.05667V8.40667C5.07999 8.16834 5.25999 7.97334 5.47999 7.97334H9.19999C9.41999 7.97334 9.59999 8.16834 9.59999 8.40667V9.05667Z" fill="#034078"></path><path d="M9.59999 6.24001C9.59999 6.47834 9.41999 6.67334 9.19999 6.67334H5.47999C5.25999 6.67334 5.07999 6.47834 5.07999 6.24001V5.59001C5.07999 5.35168 5.25999 5.15668 5.47999 5.15668H9.19999C9.41999 5.15668 9.59999 5.35168 9.59999 5.59001V6.24001Z" fill="#034078"></path><path d="M10.76 0H1.24C0.56 0 0 0.606667 0 1.34333V11.6567C0 12.3933 0.56 13 1.24 13H10.76C11.44 13 12 12.3933 12 11.6567V1.34333C12 0.606667 11.44 0 10.76 0ZM5.48 1.60333C5.48 1.43 5.64 1.3 5.8 1.3H10.48C10.64 1.3 10.76 1.47333 10.76 1.64667V2.29667C10.76 2.47 10.6 2.6 10.44 2.6H5.76C5.6 2.6 5.48 2.42667 5.48 2.25333V1.60333ZM3.88 1.3C4.22 1.3 4.48 1.58167 4.48 1.95C4.48 2.31833 4.22 2.6 3.88 2.6C3.54 2.6 3.28 2.31833 3.28 1.95C3.28 1.58167 3.54 1.3 3.88 1.3ZM1.8 1.3C2.14 1.3 2.4 1.58167 2.4 1.95C2.4 2.31833 2.14 2.6 1.8 2.6C1.46 2.6 1.2 2.31833 1.2 1.95C1.2 1.58167 1.46 1.3 1.8 1.3ZM10.8 11.3967C10.8 11.57 10.64 11.7 10.48 11.7H9.6V11.2017C9.6 10.9633 9.42 10.7683 9.2 10.7683H5.48C5.26 10.7683 5.08 10.9633 5.08 11.2017V11.7H3.88V11.2017C3.88 10.9633 3.7 10.7683 3.48 10.7683H2.8C2.58 10.7683 2.4 10.9633 2.4 11.2017V11.7H1.48C1.32 11.7 1.2 11.5267 1.2 11.3533V4.20333C1.2 4.03 1.36 3.9 1.52 3.9H10.52C10.68 3.9 10.8 4.07333 10.8 4.24667V11.3967Z" fill="#034078"></path><path d="M8.01047 9.52674C8.16978 9.03617 8.4322 8.58586 8.77847 8.20423C8.83702 8.1397 8.92889 8.11669 9.01113 8.14598L9.83864 8.44059C10.063 8.52042 10.3099 8.40404 10.39 8.18066C10.3979 8.15869 10.404 8.13612 10.4082 8.11321L10.5658 7.25159C10.5815 7.16592 10.6476 7.09815 10.7331 7.08002C10.9834 7.02698 11.24 7 11.5 7C11.7598 7 12.0163 7.02695 12.2664 7.07992C12.3519 7.09804 12.418 7.16576 12.4337 7.2514L12.5918 8.11318C12.6346 8.34654 12.8592 8.50123 13.0936 8.45867C13.1167 8.45448 13.1393 8.44844 13.1613 8.4406L13.9889 8.14598C14.0711 8.11669 14.1629 8.1397 14.2215 8.20423C14.5678 8.58586 14.8302 9.03617 14.9896 9.52674C15.0164 9.6095 14.9905 9.70023 14.9239 9.75653L14.2532 10.3235C14.0716 10.4771 14.0494 10.7481 14.2035 10.929C14.2187 10.9467 14.2353 10.9633 14.2532 10.9784L14.9239 11.5454C14.9905 11.6017 15.0164 11.6924 14.9896 11.7752C14.8302 12.2658 14.5678 12.7161 14.2215 13.0977C14.1629 13.1622 14.0711 13.1852 13.9889 13.1559L13.1613 12.8613C12.937 12.7815 12.6901 12.8979 12.61 13.1212C12.6021 13.1432 12.596 13.1658 12.5918 13.1888L12.4337 14.0505C12.418 14.1362 12.3519 14.2038 12.2664 14.222C12.0163 14.2749 11.7598 14.3019 11.5 14.3019C11.24 14.3019 10.9834 14.2749 10.7331 14.2219C10.6476 14.2037 10.5815 14.136 10.5658 14.0503L10.4082 13.1887C10.3654 12.9553 10.1408 12.8007 9.90642 12.8432C9.88336 12.8474 9.8607 12.8535 9.83868 12.8613L9.01113 13.1559C8.92889 13.1852 8.83702 13.1622 8.77847 13.0977C8.4322 12.7161 8.16978 12.2658 8.01047 11.7752C7.9836 11.6924 8.00951 11.6017 8.07611 11.5454L8.74683 10.9784C8.92843 10.8248 8.95064 10.5538 8.79644 10.3729C8.78128 10.3552 8.76469 10.3386 8.74683 10.3235L8.07611 9.75653C8.00951 9.70023 7.9836 9.6095 8.01047 9.52674V9.52674ZM10.4347 10.6509C10.4347 11.2392 10.9116 11.7161 11.4999 11.7161C12.0882 11.7161 12.5651 11.2392 12.5651 10.6509C12.5651 10.0626 12.0882 9.58569 11.4999 9.58569C10.9116 9.58569 10.4347 10.0626 10.4347 10.6509V10.6509Z" fill="#52A300"></path><circle cx="11.5" cy="10.5" r="1.5" fill="white"></circle></svg>