<svg xmlns="http://www.w3.org/2000/svg" width="33" height="31" viewBox="0 0 33 31" fill="none"><rect width="33" height="31" fill="white"></rect><g clip-path="url(#clip0_0_1)"><rect width="33" height="31" fill="white"></rect><path d="M8.53603 12.896C8.53603 13.3886 8.14003 13.7916 7.65603 13.7916H6.16003C5.67603 13.7916 5.28003 13.3886 5.28003 12.896V11.5527C5.28003 11.0601 5.67603 10.6571 6.16003 10.6571H7.65603C8.14003 10.6571 8.53603 11.0601 8.53603 11.5527V12.896Z" fill="#034078"></path><path d="M8.53603 18.7171C8.53603 19.2097 8.14003 19.6127 7.65603 19.6127H6.16003C5.67603 19.6127 5.28003 19.2097 5.28003 18.7171V17.3738C5.28003 16.8812 5.67603 16.4782 6.16003 16.4782H7.65603C8.14003 16.4782 8.53603 16.8812 8.53603 17.3738V18.7171Z" fill="#034078"></path><path d="M21.12 18.7171C21.12 19.2097 20.724 19.6127 20.24 19.6127H12.056C11.572 19.6127 11.176 19.2097 11.176 18.7171V17.3738C11.176 16.8812 11.572 16.4782 12.056 16.4782H20.24C20.724 16.4782 21.12 16.8812 21.12 17.3738V18.7171Z" fill="#034078"></path><path d="M21.12 12.896C21.12 13.3886 20.724 13.7916 20.24 13.7916H12.056C11.572 13.7916 11.176 13.3886 11.176 12.896V11.5527C11.176 11.0601 11.572 10.6571 12.056 10.6571H20.24C20.724 10.6571 21.12 11.0601 21.12 11.5527V12.896Z" fill="#034078"></path><path d="M23.672 0H2.728C1.232 0 0 1.25378 0 2.77622V24.0905C0 25.6128 1.232 26.8667 2.728 26.8667H23.672C25.168 26.8667 26.4 25.6128 26.4 24.0905V2.77622C26.4 1.25378 25.168 0 23.672 0ZM12.056 3.31355C12.056 2.95533 12.408 2.68667 12.76 2.68667H23.056C23.408 2.68667 23.672 3.04488 23.672 3.40312V4.74645C23.672 5.10467 23.32 5.37333 22.968 5.37333H12.672C12.32 5.37333 12.056 5.01512 12.056 4.65688V3.31355ZM8.536 2.68667C9.284 2.68667 9.856 3.26878 9.856 4.03C9.856 4.79122 9.284 5.37333 8.536 5.37333C7.788 5.37333 7.216 4.79122 7.216 4.03C7.216 3.26878 7.788 2.68667 8.536 2.68667ZM3.96 2.68667C4.708 2.68667 5.28 3.26878 5.28 4.03C5.28 4.79122 4.708 5.37333 3.96 5.37333C3.212 5.37333 2.64 4.79122 2.64 4.03C2.64 3.26878 3.212 2.68667 3.96 2.68667ZM23.76 23.5532C23.76 23.9113 23.408 24.18 23.056 24.18H21.12V23.1502C21.12 22.6575 20.724 22.2545 20.24 22.2545H12.056C11.572 22.2545 11.176 22.6575 11.176 23.1502V24.18H8.536V23.1502C8.536 22.6575 8.14 22.2545 7.656 22.2545H6.16C5.676 22.2545 5.28 22.6575 5.28 23.1502V24.18H3.256C2.904 24.18 2.64 23.8218 2.64 23.4635V8.68688C2.64 8.32867 2.992 8.06 3.344 8.06H23.144C23.496 8.06 23.76 8.41821 23.76 8.77645V23.5532Z" fill="#034078"></path><path d="M17.623 19.6886C17.9735 18.6748 18.5508 17.7441 19.3126 16.9554C19.4414 16.822 19.6436 16.7745 19.8245 16.835L21.645 17.4439C22.1386 17.6089 22.6818 17.3684 22.858 16.9067C22.8754 16.8613 22.8888 16.8146 22.898 16.7673L23.2448 14.9866C23.2793 14.8096 23.4247 14.6695 23.6128 14.632C24.1635 14.5224 24.728 14.4667 25.3 14.4667C25.8716 14.4667 26.4359 14.5224 26.9861 14.6318C27.1742 14.6693 27.3196 14.8092 27.3541 14.9862L27.702 16.7672C27.7961 17.2495 28.2902 17.5692 28.8059 17.4813C28.8567 17.4726 28.9065 17.4601 28.9549 17.4439L30.7756 16.835C30.9564 16.7745 31.1584 16.822 31.2873 16.9554C32.0492 17.7441 32.6264 18.6748 32.9771 19.6886C33.0361 19.8596 32.9791 20.0471 32.8326 20.1635L31.357 21.3352C30.9575 21.6527 30.9087 22.2127 31.2477 22.5866C31.2811 22.6232 31.3177 22.6575 31.357 22.6887L32.8326 23.8605C32.9791 23.9768 33.0361 24.1643 32.9771 24.3354C32.6264 25.3493 32.0492 26.2799 31.2873 27.0686C31.1584 27.2019 30.9564 27.2494 30.7756 27.1889L28.9549 26.58C28.4614 26.4151 27.9182 26.6557 27.742 27.1171C27.7246 27.1626 27.7112 27.2093 27.702 27.2569L27.3541 29.0377C27.3196 29.2148 27.1742 29.3545 26.9861 29.3921C26.4359 29.5015 25.8716 29.5573 25.3 29.5573C24.728 29.5573 24.1635 29.5015 23.6128 29.3919C23.4247 29.3543 23.2793 29.2144 23.2448 29.0373L22.898 27.2566C22.8039 26.7743 22.3098 26.4548 21.7941 26.5426C21.7434 26.5513 21.6935 26.5639 21.6451 26.58L19.8245 27.1889C19.6436 27.2494 19.4414 27.2019 19.3126 27.0686C18.5508 26.2799 17.9735 25.3493 17.623 24.3354C17.5639 24.1643 17.6209 23.9768 17.7674 23.8605L19.243 22.6887C19.6425 22.3713 19.6914 21.8112 19.3522 21.4373C19.3188 21.4007 19.2823 21.3664 19.243 21.3352L17.7674 20.1635C17.6209 20.0471 17.5639 19.8596 17.623 19.6886ZM22.9563 22.0119C22.9563 23.2277 24.0055 24.2133 25.2998 24.2133C26.594 24.2133 27.6432 23.2277 27.6432 22.0119C27.6432 20.796 26.594 19.8104 25.2998 19.8104C24.0055 19.8104 22.9563 20.796 22.9563 22.0119Z" fill="#52A300"></path><path d="M25.3 24.8C27.1225 24.8 28.6 23.4121 28.6 21.7C28.6 19.9879 27.1225 18.6 25.3 18.6C23.4775 18.6 22 19.9879 22 21.7C22 23.4121 23.4775 24.8 25.3 24.8Z" fill="white"></path></g><defs><clipPath id="clip0_0_1"><rect width="33" height="31" fill="white"></rect></clipPath></defs></svg>