<svg xmlns="http://www.w3.org/2000/svg" width="15" height="15" viewBox="0 0 15 15" fill="none"><rect width="15" height="15" fill="white"></rect><path d="M4.96875 4.87502H1.59375C1.49524 4.87508 1.39769 4.85571 1.30667 4.81804C1.21565 4.78037 1.13295 4.72513 1.06329 4.65547C0.99364 4.58582 0.938397 4.50312 0.900726 4.4121C0.863055 4.32108 0.843694 4.22353 0.84375 4.12502V0.750019C0.84375 0.551107 0.922768 0.360341 1.06342 0.219689C1.20407 0.0790367 1.39484 1.90735e-05 1.59375 1.90735e-05C1.79266 1.90735e-05 1.98343 0.0790367 2.12408 0.219689C2.26473 0.360341 2.34375 0.551107 2.34375 0.750019V3.37502H4.96875C5.16766 3.37502 5.35843 3.45404 5.49908 3.59469C5.63973 3.73534 5.71875 3.92611 5.71875 4.12502C5.71875 4.32393 5.63973 4.5147 5.49908 4.65535C5.35843 4.796 5.16766 4.87502 4.96875 4.87502Z" fill="#52A300"></path><path d="M14.25 8.25001C14.1515 8.25007 14.0539 8.23071 13.9629 8.19304C13.8719 8.15537 13.7892 8.10012 13.7195 8.03047C13.6499 7.96081 13.5946 7.87811 13.557 7.78709C13.5193 7.69607 13.4999 7.59852 13.5 7.50001C13.5008 6.17945 13.0657 4.89555 12.2621 3.8476C11.4586 2.79965 10.3316 2.04627 9.05604 1.70441C7.78049 1.36255 6.42777 1.45132 5.20784 1.95695C3.98791 2.46258 2.96902 3.35679 2.30932 4.50076C2.20967 4.67287 2.04572 4.79834 1.85356 4.84957C1.66139 4.9008 1.45675 4.87359 1.28464 4.77394C1.11254 4.67428 0.987069 4.51034 0.935839 4.31818C0.884608 4.12601 0.911813 3.92137 1.01147 3.74926C1.83649 2.31965 3.11031 1.20231 4.63526 0.570636C6.16021 -0.061037 7.85101 -0.171723 9.44529 0.255752C11.0396 0.683228 12.4482 1.62496 13.4526 2.93482C14.4569 4.24468 15.0009 5.84941 15 7.50001C15 7.59852 14.9807 7.69607 14.943 7.78709C14.9053 7.87811 14.8501 7.96081 14.7804 8.03047C14.7108 8.10012 14.6281 8.15537 14.5371 8.19304C14.4461 8.23071 14.3485 8.25007 14.25 8.25001V8.25001ZM13.4062 15C13.3077 15.0001 13.2102 14.9807 13.1192 14.943C13.0281 14.9054 12.9454 14.8501 12.8758 14.7805C12.8061 14.7108 12.7509 14.6281 12.7132 14.5371C12.6755 14.4461 12.6562 14.3485 12.6562 14.25V11.625H10.0312C9.83233 11.625 9.64157 11.546 9.50091 11.4053C9.36026 11.2647 9.28124 11.0739 9.28124 10.875C9.28124 10.6761 9.36026 10.4853 9.50091 10.3447C9.64157 10.204 9.83233 10.125 10.0312 10.125H13.4062C13.5048 10.125 13.6023 10.1443 13.6933 10.182C13.7843 10.2197 13.867 10.2749 13.9367 10.3446C14.0064 10.4142 14.0616 10.4969 14.0993 10.5879C14.1369 10.679 14.1563 10.7765 14.1562 10.875V14.25C14.1563 14.3485 14.1369 14.4461 14.0993 14.5371C14.0616 14.6281 14.0064 14.7108 13.9367 14.7805C13.867 14.8501 13.7843 14.9054 13.6933 14.943C13.6023 14.9807 13.5048 15.0001 13.4062 15V15Z" fill="#52A300"></path><path d="M7.5 15C5.51159 14.9977 3.6053 14.2067 2.19928 12.8007C0.793263 11.3947 0.00233623 9.48841 0 7.50001C0 7.3011 0.0790176 7.11033 0.21967 6.96968C0.360322 6.82903 0.551088 6.75001 0.75 6.75001C0.948912 6.75001 1.13968 6.82903 1.28033 6.96968C1.42098 7.11033 1.5 7.3011 1.5 7.50001C1.49917 8.82057 1.9343 10.1045 2.73785 11.1524C3.5414 12.2004 4.66841 12.9537 5.94396 13.2956C7.2195 13.6375 8.57223 13.5487 9.79215 13.0431C11.0121 12.5374 12.031 11.6432 12.6907 10.4993C12.7903 10.3272 12.9543 10.2017 13.1464 10.1505C13.3386 10.0992 13.5432 10.1264 13.7153 10.2261C13.8875 10.3257 14.0129 10.4897 14.0642 10.6818C14.1154 10.874 14.0882 11.0787 13.9885 11.2508C13.3289 12.3881 12.3827 13.3328 11.2442 13.9906C10.1058 14.6485 8.81483 14.9965 7.5 15V15Z" fill="#52A300"></path><path d="M7.49997 6.73828C7.01973 6.73828 6.63041 7.12759 6.63041 7.60784C6.63041 8.08809 7.01973 8.4774 7.49997 8.4774C7.98022 8.4774 8.36954 8.08809 8.36954 7.60784C8.36954 7.12759 7.98022 6.73828 7.49997 6.73828V6.73828ZM7.06519 7.60784C7.06519 7.36772 7.25985 7.17306 7.49997 7.17306C7.74009 7.17306 7.93475 7.36772 7.93475 7.60784C7.93475 7.84796 7.74009 8.04262 7.49997 8.04262C7.25985 8.04262 7.06519 7.84796 7.06519 7.60784V7.60784Z" fill="#034078"></path><path d="M8.63825 6.0419C8.47086 6.0723 8.31039 5.96182 8.27986 5.79512L8.16694 5.17957C8.15572 5.1184 8.10852 5.07003 8.04744 5.05709C7.86877 5.01924 7.68558 5 7.49999 5C7.3143 5 7.131 5.01927 6.95223 5.05716C6.89113 5.07011 6.84393 5.11851 6.83273 5.1797L6.72012 5.79515C6.71713 5.81152 6.71279 5.82763 6.70716 5.84332C6.64989 6.00288 6.47356 6.08601 6.31331 6.02899L5.72224 5.81855C5.66349 5.79764 5.59787 5.81407 5.55605 5.86016C5.30872 6.13275 5.12127 6.4544 5.00748 6.80481C4.98828 6.86393 5.00679 6.92873 5.05436 6.96894L5.53345 7.37396C5.5462 7.38473 5.55805 7.39653 5.56888 7.40923C5.67903 7.53839 5.66316 7.73201 5.53345 7.84168L5.05436 8.24669C5.00679 8.2869 4.98828 8.35171 5.00748 8.41082C5.12127 8.76123 5.30872 9.08288 5.55605 9.35549C5.59787 9.40158 5.66349 9.41801 5.72224 9.3971L6.31334 9.18662C6.32907 9.18106 6.34526 9.17671 6.36172 9.17371C6.52913 9.14332 6.6896 9.25379 6.72013 9.42049L6.83273 10.0359C6.84393 10.0971 6.89113 10.1455 6.95223 10.1585C7.131 10.1964 7.3143 10.2156 7.49999 10.2156C7.68558 10.2156 7.86877 10.1964 8.04744 10.1585C8.10852 10.1456 8.15572 10.0972 8.16694 10.0361L8.27985 9.42053C8.28286 9.4041 8.2872 9.38801 8.29283 9.37232C8.3501 9.21275 8.52643 9.12962 8.68669 9.18662L9.27773 9.3971C9.33651 9.41801 9.40212 9.40158 9.44395 9.35549C9.69129 9.08288 9.87873 8.76123 9.99251 8.41082C10.0117 8.35171 9.99321 8.2869 9.94564 8.24669L9.46656 7.84168C9.45377 7.8309 9.44195 7.8191 9.43112 7.80639C9.32095 7.67723 9.33682 7.48362 9.46656 7.37395L9.94564 6.96894C9.99321 6.92873 10.0117 6.86393 9.99251 6.80481C9.87873 6.4544 9.69129 6.13275 9.44395 5.86016C9.40212 5.81407 9.33651 5.79764 9.27773 5.81855L8.68664 6.029C8.6709 6.03459 8.65473 6.03892 8.63825 6.0419V6.0419ZM5.76027 6.29361L6.16748 6.43858C6.55224 6.57549 6.9777 6.37661 7.11638 5.99019C7.13001 5.95222 7.14053 5.91311 7.1478 5.8734L7.22494 5.45182C7.31552 5.44051 7.40732 5.43478 7.49999 5.43478C7.5926 5.43478 7.68433 5.4405 7.77484 5.45179L7.85222 5.87357C7.92631 6.27776 8.31419 6.54264 8.71595 6.46969C8.75551 6.46251 8.79456 6.45209 8.83247 6.4386L9.23973 6.29361C9.3506 6.43864 9.44277 6.59687 9.51386 6.76464L9.18582 7.04193C8.87243 7.30692 8.83369 7.77588 9.1003 8.08851C9.12643 8.11918 9.15508 8.14769 9.18586 8.17371L9.51386 8.45099C9.44277 8.61875 9.3506 8.77697 9.23973 8.92201L8.83243 8.77701C8.44769 8.6401 8.02229 8.83901 7.88361 9.22545C7.86998 9.2634 7.85946 9.30253 7.85219 9.34223L7.77484 9.76384C7.68433 9.77514 7.5926 9.78084 7.49999 9.78084C7.40732 9.78084 7.31552 9.77514 7.22494 9.76379L7.1478 9.34219C7.07376 8.93793 6.68584 8.67297 6.28404 8.74593C6.24446 8.75314 6.20543 8.76353 6.16751 8.77706L5.76027 8.92201C5.64938 8.77697 5.55722 8.61875 5.48615 8.45099L5.81416 8.1737C6.12758 7.90871 6.16632 7.43975 5.89971 7.12712C5.87355 7.09644 5.84492 7.06794 5.81415 7.04192L5.48615 6.76464C5.55722 6.59687 5.64938 6.43864 5.76027 6.29361V6.29361Z" fill="#034078"></path></svg>