<svg xmlns="http://www.w3.org/2000/svg" width="10" height="11" viewBox="0 0 10 11" fill="none"><rect width="10" height="11" fill="white"></rect><path d="M9.82094 1.50315L8.5001 0.182973C8.38039 0.065692 8.21945 0 8.05182 0C7.88419 0 7.72325 0.065692 7.60354 0.182973L2 5.78371V8H4.2134L9.81694 2.39926C9.93428 2.27961 10 2.11875 10 1.95121C10 1.78366 9.93428 1.6228 9.81694 1.50315H9.82094ZM3.88119 7.19989H2.80051V6.11975L6.57889 2.33926L7.66358 3.4234L3.88119 7.19989ZM8.22793 2.85932L7.14325 1.77518L8.05182 0.867063L9.13651 1.95121L8.22793 2.85932Z" fill="#52A300"></path><path d="M7.2 7.85714V10.2143H0.8V0.785714H4.8V0H0.8C0.587827 0 0.384344 0.0827803 0.234315 0.23013C0.0842854 0.37748 0 0.57733 0 0.785714V10.2143C0 10.4227 0.0842854 10.6225 0.234315 10.7699C0.384344 10.9172 0.587827 11 0.8 11H7.2C7.41217 11 7.61566 10.9172 7.76569 10.7699C7.91571 10.6225 8 10.4227 8 10.2143V7.85714H7.2Z" fill="#034078"></path></svg>