<svg xmlns="http://www.w3.org/2000/svg" width="46" height="29" viewBox="0 0 46 29" fill="none"><rect width="46" height="29" fill="white"></rect><path d="M36.3451 3.36315L35.6994 3.78138C35.6856 3.79028 35.2076 4.08761 35.0672 4.17519L34.0944 4.76452L34.1082 4.77279C33.6575 5.05341 33.5322 5.13235 33.0206 5.45025C32.7611 5.61153 32.7547 5.6153 32.5085 5.76832C30.6474 4.76709 28.6281 3.99756 26.2715 3.39243C23.3078 4.28856 20.1682 5.58528 17.0331 6.80196C18.3346 8.37049 19.7811 8.88125 21.2381 8.89952C22.9276 8.92063 24.6548 8.18534 25.8442 7.36155L26.523 6.89155L27.2041 7.87653L37.7937 15.526L41.9315 12.7733L36.3451 3.36315ZM10.6008 3.61468L6.43964 14.1518L7.96681 15.327L10.7914 12.1229L11.0177 11.8663L11.3589 11.845C11.4965 11.8364 11.6322 11.8323 11.7661 11.8331C12.7028 11.8391 13.5402 12.0824 14.1683 12.6372C14.6336 13.0477 14.9428 13.5943 15.1222 14.2271L15.3314 14.2141C16.4316 14.1453 17.4228 14.3725 18.1408 15.0063C18.8587 15.6404 19.2076 16.5965 19.2763 17.6978L19.2828 17.7969C19.8735 17.9086 20.4022 18.1414 20.8322 18.521C21.5502 19.155 21.899 20.111 21.9678 21.2122L21.9858 21.4986C22.0447 21.5172 22.1028 21.5376 22.1601 21.5591L22.3466 21.2972L22.8483 20.5923L23.1063 20.2297L23.7786 20.7092L29.2295 24.5955C29.8224 24.4492 30.1758 24.2214 30.3724 23.945C30.5693 23.6685 30.6689 23.2593 30.613 22.6501L24.0771 17.9657L23.4059 17.4846L23.8819 16.8195L24.4937 15.9598L25.166 16.4393L32.5345 21.6924C33.1274 21.5462 33.4811 21.3184 33.6777 21.042C33.8743 20.7657 33.9739 20.3575 33.9184 19.7494L25.4435 13.7321L24.7702 13.2538L25.7254 11.9062L26.3989 12.3843L34.8754 18.403C35.4688 18.2567 35.8226 18.0289 36.0194 17.7523C36.2164 17.4756 36.316 17.066 36.2597 16.4557L26.1299 9.13856C24.7857 9.93609 23.0662 10.575 21.2176 10.5519C19.0541 10.5248 16.74 9.49014 15.0376 6.87539C14.9703 6.77199 14.9269 6.65481 14.9108 6.53245C14.8946 6.41009 14.9061 6.28567 14.9443 6.16832C14.9825 6.05097 15.0465 5.94369 15.1316 5.85434C15.2167 5.76499 15.3207 5.69586 15.4359 5.65202C16.6296 5.19808 17.8357 4.71844 19.0446 4.24257L10.6008 3.61468ZM11.7842 13.4939L7.42152 18.4426C7.50655 19.0619 7.70036 19.4471 7.96149 19.6777C8.22263 19.9083 8.62877 20.0527 9.25331 20.0599L13.6159 15.1113C13.5309 14.492 13.3371 14.1066 13.0759 13.876C12.8148 13.6454 12.4088 13.501 11.7842 13.4939ZM15.7565 15.8631L10.8298 21.4517C10.9148 22.0711 11.1087 22.4565 11.3697 22.687C11.6311 22.9175 12.037 23.0619 12.6616 23.0689L17.5883 17.4805C17.5034 16.8611 17.3095 16.4759 17.0483 16.2452C16.7873 16.0146 16.3811 15.8704 15.7565 15.8631ZM18.4476 19.3777L14.0853 24.3264C14.1704 24.9457 14.3642 25.331 14.6253 25.5617C14.8865 25.7923 15.2926 25.9365 15.9171 25.9437L20.2796 20.9955C20.1946 20.3759 20.0008 19.9906 19.7396 19.7599C19.4785 19.5293 19.0723 19.3849 18.4476 19.3777ZM20.7134 22.9703L17.1551 27.0351C17.2399 27.6556 17.4337 28.0414 17.6951 28.2722C17.9561 28.5026 18.3617 28.6469 18.9854 28.6543L22.5439 24.5895C22.4589 23.9692 22.265 23.5834 22.0036 23.3525C21.7428 23.1221 21.3371 22.9779 20.7134 22.9703ZM23.955 23.41C24.1104 23.8341 24.2002 24.3041 24.2315 24.8046L24.2527 25.1446L23.4936 26.0119L25.9447 27.7595C26.5376 27.6131 26.8909 27.3854 27.0876 27.109C27.2843 26.8327 27.3841 26.4238 27.3286 25.8153L23.955 23.41Z" fill="#034078"></path><path d="M36.6853 3.11587L39.6007 0.981017L46 9.73434L42.3494 11.5L36.6853 3.11587Z" fill="#52A300"></path><path d="M5.84465 2.02417L9.24642 3.51029L4.34907 14.7387L0.924404 12.3399L5.84465 2.02417Z" fill="#52A300"></path></svg>