<svg xmlns="http://www.w3.org/2000/svg" width="47" height="47" viewBox="0 0 47 47" fill="none"><rect width="47" height="47" fill="white"></rect><path d="M0 0H46.9618V47H0V0Z" fill="white"></path><path d="M37.3451 15.3632L36.6994 15.7814C36.6856 15.7903 36.2076 16.0876 36.0672 16.1752L35.0944 16.7645L35.1082 16.7728C34.6575 17.0534 34.5322 17.1324 34.0206 17.4502C33.7611 17.6115 33.7547 17.6153 33.5085 17.7683C31.6474 16.7671 29.6281 15.9976 27.2715 15.3924C24.3078 16.2886 21.1682 17.5853 18.0331 18.802C19.3346 20.3705 20.7811 20.8813 22.2381 20.8995C23.9276 20.9206 25.6548 20.1853 26.8442 19.3616L27.523 18.8916L28.2041 19.8765L38.7937 27.526L42.9315 24.7733L37.3451 15.3632ZM11.6008 15.6147L7.43964 26.1518L8.96681 27.327L11.7914 24.1229L12.0177 23.8663L12.3589 23.845C12.4965 23.8364 12.6322 23.8323 12.7661 23.8331C13.7028 23.8391 14.5402 24.0824 15.1683 24.6372C15.6336 25.0477 15.9428 25.5943 16.1222 26.2271L16.3314 26.2141C17.4316 26.1453 18.4228 26.3725 19.1408 27.0063C19.8587 27.6404 20.2076 28.5965 20.2763 29.6978L20.2828 29.7969C20.8735 29.9086 21.4022 30.1414 21.8322 30.521C22.5502 31.155 22.899 32.111 22.9678 33.2122L22.9858 33.4986C23.0447 33.5172 23.1028 33.5376 23.1601 33.5591L23.3466 33.2972L23.8483 32.5923L24.1063 32.2297L24.7786 32.7092L30.2295 36.5955C30.8224 36.4492 31.1758 36.2214 31.3724 35.945C31.5693 35.6685 31.6689 35.2593 31.613 34.6501L25.0771 29.9657L24.4059 29.4846L24.8819 28.8195L25.4937 27.9598L26.166 28.4393L33.5345 33.6924C34.1274 33.5462 34.4811 33.3185 34.6777 33.0421C34.8743 32.7657 34.9739 32.3575 34.9184 31.7494L26.4435 25.7321L25.7702 25.2538L26.7254 23.9062L27.3989 24.3843L35.8754 30.403C36.4688 30.2567 36.8226 30.0289 37.0194 29.7523C37.2164 29.4756 37.316 29.0661 37.2597 28.4557L27.1299 21.1386C25.7857 21.9361 24.0662 22.575 22.2176 22.5519C20.0541 22.5248 17.74 21.4901 16.0376 18.8754C15.9703 18.772 15.9269 18.6548 15.9108 18.5325C15.8946 18.4101 15.9061 18.2857 15.9443 18.1683C15.9825 18.051 16.0465 17.9437 16.1316 17.8543C16.2167 17.765 16.3207 17.6959 16.4359 17.652C17.6296 17.1981 18.8357 16.7184 20.0446 16.2426L11.6008 15.6147ZM12.7842 25.4939L8.42152 30.4426C8.50655 31.0619 8.70036 31.4471 8.96149 31.6777C9.22263 31.9083 9.62877 32.0527 10.2533 32.0599L14.6159 27.1113C14.5309 26.492 14.3371 26.1066 14.0759 25.876C13.8148 25.6454 13.4088 25.501 12.7842 25.4939ZM16.7565 27.8631L11.8298 33.4517C11.9148 34.0711 12.1087 34.4565 12.3697 34.6871C12.6311 34.9175 13.037 35.0619 13.6616 35.0689L18.5883 29.4805C18.5034 28.8611 18.3095 28.4759 18.0483 28.2452C17.7873 28.0146 17.3811 27.8704 16.7565 27.8631ZM19.4476 31.3777L15.0853 36.3265C15.1704 36.9457 15.3642 37.331 15.6253 37.5617C15.8865 37.7923 16.2926 37.9365 16.9171 37.9437L21.2796 32.9955C21.1946 32.3759 21.0008 31.9906 20.7396 31.7599C20.4785 31.5293 20.0723 31.3849 19.4476 31.3777ZM21.7134 34.9703L18.1551 39.0351C18.2399 39.6557 18.4337 40.0414 18.6951 40.2722C18.9561 40.5026 19.3617 40.6469 19.9854 40.6543L23.5439 36.5895C23.4589 35.9692 23.265 35.5834 23.0036 35.3525C22.7428 35.1221 22.3371 34.9779 21.7134 34.9703ZM24.955 35.41C25.1104 35.8341 25.2002 36.3041 25.2315 36.8046L25.2527 37.1446L24.4936 38.0119L26.9447 39.7595C27.5376 39.6131 27.8909 39.3854 28.0876 39.109C28.2843 38.8327 28.3841 38.4238 28.3286 37.8153L24.955 35.41Z" fill="#034078"></path><path d="M37.6853 15.1159L40.6007 12.981L47 21.7343L43.3494 23.5L37.6853 15.1159Z" fill="#52A300"></path><path d="M6.84465 14.0242L10.2464 15.5103L5.34907 26.7387L1.9244 24.3399L6.84465 14.0242Z" fill="#52A300"></path></svg>