<svg xmlns="http://www.w3.org/2000/svg" width="14" height="13" viewBox="0 0 14 13" fill="none"><rect width="14" height="13" fill="white"></rect><path d="M-2.28882e-05 0H13V13H-2.28882e-05V0Z" fill="white"></path><path d="M10.3379 4.24938L10.1591 4.36506C10.1553 4.36752 10.023 4.44976 9.98412 4.47399L9.71485 4.637L9.71866 4.63928C9.59389 4.7169 9.55921 4.73874 9.4176 4.82666C9.34575 4.87127 9.34397 4.87232 9.27582 4.91464C8.76065 4.63771 8.20165 4.42486 7.54931 4.25748C6.72889 4.50534 5.85977 4.86401 4.99192 5.20054C5.35221 5.63439 5.75262 5.77566 6.15595 5.78072C6.62364 5.78656 7.10175 5.58318 7.43102 5.35532L7.61891 5.22532L7.80746 5.49776L10.7389 7.61356L11.8843 6.85218L10.3379 4.24938ZM3.21132 4.31895L2.05943 7.23347L2.48218 7.55854L3.26408 6.67228L3.32672 6.60132L3.42118 6.59543C3.45926 6.59304 3.49684 6.59192 3.53391 6.59212C3.7932 6.5938 4.02502 6.66109 4.19889 6.81455C4.32767 6.92809 4.41329 7.07927 4.46295 7.25431L4.52084 7.25071C4.8254 7.23166 5.0998 7.29451 5.29856 7.46983C5.49729 7.6452 5.59385 7.90967 5.61289 8.21428L5.61467 8.2417C5.77819 8.27258 5.92456 8.33697 6.0436 8.44198C6.24235 8.61733 6.33889 8.88175 6.35793 9.18636L6.36293 9.26558C6.37923 9.27071 6.39531 9.27635 6.41118 9.28229L6.4628 9.20985L6.60168 9.0149L6.67311 8.91461L6.85922 9.04722L8.36813 10.1222C8.53226 10.0817 8.63009 10.0187 8.6845 9.94224C8.73901 9.86576 8.76659 9.75257 8.75113 9.58405L6.94184 8.28837L6.75603 8.15532L6.88781 7.97134L7.05716 7.73356L7.24328 7.86618L9.28303 9.31918C9.44716 9.27873 9.54506 9.21574 9.59948 9.13929C9.65391 9.06286 9.68149 8.94995 9.66613 8.78174L7.32008 7.11738L7.13372 6.9851L7.39813 6.61236L7.58458 6.7446L9.93103 8.40933C10.0953 8.36886 10.1932 8.30586 10.2477 8.22936C10.3023 8.15281 10.3298 8.03954 10.3142 7.87072L7.51011 5.84683C7.13801 6.06743 6.66201 6.24415 6.15026 6.23775C5.55137 6.23026 4.91077 5.94408 4.43952 5.22085C4.42088 5.19225 4.40888 5.15984 4.40441 5.126C4.39995 5.09215 4.40312 5.05774 4.41369 5.02528C4.42427 4.99282 4.44199 4.96315 4.46554 4.93843C4.48909 4.91372 4.51788 4.8946 4.54979 4.88247C4.88022 4.75692 5.21408 4.62425 5.54873 4.49262L3.21132 4.31895ZM3.53891 7.05149L2.33123 8.4203C2.35477 8.59159 2.40842 8.69813 2.48071 8.76191C2.55299 8.82569 2.66542 8.86563 2.83831 8.86763L4.04596 7.49887C4.02243 7.32756 3.96878 7.22097 3.89649 7.15719C3.8242 7.09341 3.71182 7.05347 3.53891 7.05149ZM4.63853 7.70682L3.27472 9.25261C3.29823 9.42392 3.35191 9.53051 3.42417 9.59429C3.49653 9.65802 3.60889 9.69796 3.7818 9.69991L5.14561 8.15418C5.12209 7.98285 5.06842 7.87631 4.99613 7.8125C4.92387 7.74872 4.81144 7.70883 4.63853 7.70682ZM5.38349 8.67893L4.17591 10.0477C4.19945 10.219 4.2531 10.3256 4.32539 10.3894C4.3977 10.4532 4.5101 10.4931 4.68299 10.4951L5.89062 9.12641C5.86708 8.95503 5.81343 8.84846 5.74114 8.78466C5.66886 8.72088 5.5564 8.68094 5.38349 8.67893ZM6.01069 9.67264L5.02569 10.7969C5.04917 10.9686 5.10282 11.0753 5.17519 11.1391C5.24742 11.2028 5.3597 11.2427 5.53236 11.2448L6.51741 10.1205C6.4939 9.94892 6.44022 9.84223 6.36786 9.77834C6.29565 9.71461 6.18335 9.67472 6.01069 9.67264ZM6.90804 9.79426C6.95106 9.91157 6.97591 10.0416 6.98457 10.18L6.99046 10.274L6.7803 10.5139L7.45884 10.9973C7.62297 10.9568 7.72077 10.8938 7.77521 10.8174C7.82967 10.741 7.8573 10.6279 7.84194 10.4595L6.90804 9.79426Z" fill="#034078"></path><path d="M10.432 4.18098L11.2391 3.59049L13.0106 6.01163L12 6.5L10.432 4.18098Z" fill="#52A300"></path><path d="M1.89472 3.87903L2.8364 4.29008L1.48071 7.39581L0.532693 6.7323L1.89472 3.87903Z" fill="#52A300"></path></svg>