<svg xmlns="http://www.w3.org/2000/svg" width="20" height="20" viewBox="0 0 20 20" fill="none"><rect width="20" height="20" fill="white"></rect><path d="M-2.28882e-05 0H19.9837V20H-2.28882e-05V0Z" fill="white"></path><path d="M15.8915 6.53751L15.6167 6.71548C15.6109 6.71927 15.4075 6.84579 15.3477 6.88306L14.9338 7.13384L14.9396 7.13735C14.7478 7.25677 14.6945 7.29036 14.4768 7.42563C14.3664 7.49427 14.3637 7.49587 14.2589 7.56099C13.467 7.13493 12.6077 6.80747 11.6049 6.54997C10.3437 6.9313 9.0077 7.4831 7.67363 8.00083C8.22748 8.66829 8.84299 8.88564 9.46299 8.89341C10.1819 8.90239 10.9169 8.5895 11.423 8.23896L11.7119 8.03896L12.0017 8.4581L16.5079 11.7132L18.2687 10.5418L15.8915 6.53751ZM4.93649 6.64454L3.16578 11.1284L3.81564 11.6285L5.01759 10.265L5.11388 10.1559L5.25907 10.1468C5.31762 10.1431 5.37539 10.1414 5.43237 10.1417C5.83095 10.1443 6.1873 10.2478 6.45459 10.4839C6.65255 10.6586 6.78416 10.8912 6.86051 11.1605L6.9495 11.1549C7.41767 11.1256 7.83947 11.2223 8.14501 11.492C8.4505 11.7618 8.59893 12.1687 8.62821 12.6374L8.63094 12.6795C8.8823 12.727 9.10731 12.8261 9.29028 12.9877C9.59582 13.2574 9.74421 13.6642 9.77348 14.1329L9.78117 14.2547C9.80623 14.2626 9.83094 14.2713 9.85533 14.2804L9.93468 14.169L10.1482 13.8691L10.258 13.7148L10.5441 13.9188L12.8636 15.5725C13.1159 15.5103 13.2663 15.4134 13.3499 15.2958C13.4337 15.1781 13.4761 15.004 13.4523 14.7447L10.6711 12.7513L10.3854 12.5467L10.588 12.2636L10.8484 11.8978L11.1344 12.1018L14.27 14.3372C14.5223 14.275 14.6728 14.1781 14.7564 14.0604C14.8401 13.9429 14.8825 13.7691 14.8589 13.5104L11.2525 10.9498L10.966 10.7463L11.3725 10.1729L11.6591 10.3763L15.2661 12.9374C15.5186 12.8752 15.6692 12.7783 15.7529 12.6606C15.8368 12.5428 15.8791 12.3685 15.8552 12.1088L11.5446 8.99513C10.9726 9.3345 10.2409 9.60638 9.45425 9.59653C8.53364 9.58501 7.54889 9.14474 6.82448 8.03208C6.79583 7.98808 6.77739 7.93821 6.77052 7.88615C6.76365 7.83408 6.76853 7.78113 6.78478 7.7312C6.80104 7.68126 6.82828 7.63561 6.86448 7.59759C6.90068 7.55957 6.94494 7.53015 6.99399 7.51149C7.50194 7.31833 8.01515 7.11423 8.52958 6.91173L4.93649 6.64454ZM5.44006 10.8484L3.5836 12.9543C3.61978 13.2178 3.70226 13.3817 3.81338 13.4799C3.9245 13.578 4.09733 13.6394 4.36309 13.6425L6.2195 11.5367C6.18332 11.2732 6.10085 11.1092 5.98973 11.0111C5.87861 10.9129 5.70586 10.8515 5.44006 10.8484ZM7.1304 11.8567L5.03395 14.2348C5.07009 14.4983 5.1526 14.6623 5.26368 14.7604C5.37492 14.8585 5.54763 14.9199 5.81343 14.9229L7.90989 12.5449C7.87374 12.2813 7.79123 12.1174 7.68011 12.0192C7.56903 11.9211 7.3962 11.8597 7.1304 11.8567ZM8.27556 13.3522L6.41926 15.4581C6.45544 15.7216 6.53792 15.8855 6.64904 15.9837C6.7602 16.0818 6.93298 16.1432 7.19875 16.1463L9.05512 14.0406C9.01894 13.777 8.93647 13.613 8.82535 13.5149C8.71423 13.4167 8.54136 13.3553 8.27556 13.3522ZM9.2397 14.881L7.72554 16.6107C7.76165 16.8747 7.84412 17.0389 7.95536 17.1371C8.0664 17.2351 8.23899 17.2965 8.5044 17.2997L10.0186 15.57C9.98249 15.306 9.89998 15.1419 9.78875 15.0436C9.67774 14.9456 9.50511 14.8842 9.2397 14.881ZM10.6191 15.0681C10.6852 15.2486 10.7235 15.4486 10.7368 15.6615L10.7458 15.8062L10.4228 16.1753L11.4658 16.9189C11.7181 16.8567 11.8685 16.7597 11.9521 16.6421C12.0359 16.5245 12.0783 16.3506 12.0547 16.0916L10.6191 15.0681Z" fill="#034078"></path><path d="M16.0363 6.43228L17.2769 5.52384L20 9.24865L18.4465 10L16.0363 6.43228Z" fill="#52A300"></path><path d="M2.91259 5.96773L4.36015 6.60012L2.27618 11.3782L0.818872 10.3574L2.91259 5.96773Z" fill="#52A300"></path></svg>