<svg clip-rule="evenodd" fill-rule="evenodd" stroke-linejoin="round" stroke-miterlimit="2" viewBox="0 0 28 28" xmlns="http://www.w3.org/2000/svg"><path d="m13 23.76c-.76 0-1.38-.62-1.38-1.38s.62-1.38 1.38-1.38 1.38.62 1.38 1.38-.62 1.38-1.38 1.38zm0-2c-.34 0-.62.28-.62.62s.28.62.62.62.62-.28.62-.62-.28-.62-.62-.62z" fill="#fff" fill-rule="nonzero"/><path d="m22.76 3.87c-.76 0-1.38-.62-1.38-1.38s.62-1.38 1.38-1.38 1.38.62 1.38 1.38-.61 1.38-1.38 1.38zm0-2c-.34 0-.62.28-.62.62s.28.62.62.62.62-.28.62-.62-.28-.62-.62-.62z" fill="#03dac6" fill-rule="nonzero"/><path d="m20.11 26.89h-14.22c-1.13 0-2.04-.92-2.04-2.04v-18.21c0-1.13.92-2.04 2.04-2.04h14.22c1.13 0 2.04.92 2.04 2.04v18.21c0 1.13-.92 2.04-2.04 2.04zm-14.22-21.52c-.7 0-1.27.57-1.27 1.27v18.21c0 .7.57 1.27 1.27 1.27h14.22c.7 0 1.27-.57 1.27-1.27v-18.21c0-.7-.57-1.27-1.27-1.27z" fill="#fff" fill-rule="nonzero"/><path d="m10.71 7.38h9.04v.77h-9.04z" fill="#03dac6"/><g fill="#fff"><path d="m10.71 9.31h6.48v.51h-6.48z"/><path d="m10.71 11.11h9.04v.51h-9.04z"/><path d="m6.83 12.2v-2.8h-.48v-.83h.48v-.14c0-.44.13-.92.46-1.22.28-.27.68-.36 1-.36.25 0 .45.03.6.07l-.04.87c-.1-.03-.22-.05-.36-.05-.37 0-.53.29-.53.65v.19h.73v.82h-.72v2.8z" fill-rule="nonzero"/></g><path d="m20.14 19.46h-14.27v-5.65h14.27zm-13.51-.77h12.74v-4.12h-12.74z" fill="#03dac6" fill-rule="nonzero"/></svg>