<svg enable-background="new 0 0 28 28" viewBox="0 0 28 28" xmlns="http://www.w3.org/2000/svg"><path d="m2.81 22.2c-.76 0-1.38-.62-1.38-1.38s.62-1.38 1.38-1.38 1.38.62 1.38 1.38-.61 1.38-1.38 1.38zm0-2c-.34 0-.62.28-.62.62s.28.62.62.62.62-.28.62-.62-.28-.62-.62-.62z" fill="#03dac6"/><path d="m22.42 3.33c-.76 0-1.38-.62-1.38-1.38s.62-1.38 1.38-1.38 1.38.62 1.38 1.38-.62 1.38-1.38 1.38zm0-2c-.34 0-.62.28-.62.62s.28.62.62.62.62-.28.62-.62-.28-.62-.62-.62z" fill="#03dac6"/><path d="m22.53 27.43h-14.22c-1.12 0-2.04-.92-2.04-2.04v-18.21c0-1.13.92-2.04 2.04-2.04h14.22c1.12 0 2.04.92 2.04 2.04v18.21c0 1.13-.92 2.04-2.04 2.04zm-14.22-21.52c-.7 0-1.27.57-1.27 1.27v18.21c0 .7.57 1.27 1.27 1.27h14.22c.7 0 1.27-.57 1.27-1.27v-18.21c0-.7-.57-1.27-1.27-1.27z" fill="#fff"/><path d="m10.9 7.41h9.04v.77h-9.04z" fill="#03dac6"/><path d="m10.9 9.34h6.48v.51h-6.48z" fill="#fff"/><path d="m10.9 11.14h9.04v.51h-9.04z" fill="#fff"/><path d="m10.9 14.31h9.04v.77h-9.04z" fill="#03dac6"/><path d="m10.9 16.24h6.48v.51h-6.48z" fill="#fff"/><path d="m10.9 18.04h9.04v.51h-9.04z" fill="#fff"/><path d="m10.9 20.89h9.04v.77h-9.04z" fill="#03dac6"/><g fill="#fff"><path d="m10.9 22.82h6.48v.51h-6.48z"/><path d="m10.9 24.62h9.04v.51h-9.04z"/></g></svg>