<svg enable-background="new 0 0 28 28" viewBox="0 0 28 28" xmlns="http://www.w3.org/2000/svg"><path d="m24.79 23.93h-17.93c-1.48 0-2.68-1.2-2.68-2.68v-10.63c0-1.48 1.2-2.68 2.68-2.68h17.92c1.48 0 2.68 1.2 2.68 2.68v10.63c.01 1.48-1.19 2.68-2.67 2.68zm-17.93-15.23c-1.06 0-1.92.86-1.92 1.92v10.63c0 1.06.86 1.92 1.92 1.92h17.92c1.06 0 1.92-.86 1.92-1.92v-10.63c0-1.06-.86-1.92-1.92-1.92z" fill="#fff"/><path d="m7.84 11.17h6.41v1.53h-6.41z" fill="#03dac6"/><g fill="#fff"><path d="m17.41 11.17h6.41v1.53h-6.41z"/><path d="m7.84 16.9c-.76 0-1.38-.62-1.38-1.38s.62-1.38 1.38-1.38 1.38.62 1.38 1.38-.62 1.38-1.38 1.38zm0-2c-.34 0-.62.28-.62.62s.28.62.62.62.62-.28.62-.62c-.01-.34-.28-.62-.62-.62z"/><path d="m7.84 21.14c-.76 0-1.38-.62-1.38-1.38s.62-1.38 1.38-1.38 1.38.62 1.38 1.38-.62 1.38-1.38 1.38zm0-2c-.34 0-.62.28-.62.62s.28.62.62.62.62-.28.62-.62c-.01-.34-.28-.62-.62-.62z"/></g><path d="m21.42 6.83c-.76 0-1.38-.62-1.38-1.38s.62-1.38 1.38-1.38 1.38.62 1.38 1.38-.62 1.38-1.38 1.38zm0-2c-.34 0-.62.28-.62.62s.28.62.62.62.62-.28.62-.62c-.01-.34-.28-.62-.62-.62z" fill="#03dac6"/><path d="m1.91 20.14c-.76 0-1.38-.62-1.38-1.38s.62-1.38 1.38-1.38 1.38.62 1.38 1.38-.62 1.38-1.38 1.38zm0-1.99c-.34 0-.62.28-.62.62s.28.62.62.62.62-.28.62-.62c0-.35-.28-.62-.62-.62z" fill="#03dac6"/><path d="m10.56 15.13h14.06v.77h-14.06z" fill="#fff"/><path d="m10.56 19.38h14.06v.77h-14.06z" fill="#03dac6"/></svg>