<svg enable-background="new 0 0 28 28" viewBox="0 0 28 28" xmlns="http://www.w3.org/2000/svg"><path d="m22.04 8c-.65 0-1.18-.53-1.18-1.18s.53-1.18 1.18-1.18 1.18.53 1.18 1.18-.53 1.18-1.18 1.18zm0-1.6c-.23 0-.42.19-.42.42s.19.42.42.42.42-.19.42-.42c-.01-.24-.19-.42-.42-.42z" fill="#03dac6"/><path d="m8.24 21.13c-.65 0-1.18-.53-1.18-1.18s.53-1.18 1.18-1.18 1.18.53 1.18 1.18c.01.65-.52 1.18-1.18 1.18zm0-1.6c-.23 0-.42.19-.42.42s.19.42.42.42.42-.19.42-.42-.19-.42-.42-.42z" fill="#03dac6"/><path d="m22.41 22.37h-6.36l-3.59-5.87.11-.2c.23-.4.74-.75 1.29-.87.46-.1.87-.04 1.17.18.08.06.29.21.85 1.06v-3.89c.02-.55.38-1.56 1.56-1.56.54 0 .85.22 1.02.41.4.44.38 1.04.37 1.18v2.37h2.18c.52 0 .91.15 1.16.44.27.31.26.68.24.8zm-5.93-.77h5.17l.01-5.26s.01-.13-.07-.23c-.09-.1-.29-.16-.57-.16h-2.94v-3.19c.01-.11-.01-.43-.18-.61-.1-.11-.25-.16-.46-.16-.71 0-.78.68-.79.81v6.65l-.71-1.23c-.97-1.68-1.29-1.96-1.35-2-.12-.08-.32-.1-.56-.05-.25.06-.5.19-.66.33z" fill="#fff"/><path d="m11.48 14.92-1 1c-.11.11-.11.29 0 .39.05.05.13.08.2.08s.14-.03.2-.08l1.67-1.66-1.67-1.66c-.11-.11-.28-.11-.39 0s-.11.29 0 .39l.99.99c-4.33-.02-6.13-.93-6.13-2.74 0-1.82 3.7-3.35 8.07-3.35s8.07 1.53 8.07 3.35c0 .15.12.28.28.28.15 0 .28-.12.28-.28 0-2.19-3.79-3.91-8.63-3.91s-8.63 1.72-8.63 3.91c-.01 2.17 1.9 3.27 6.69 3.29z" fill="#03dac6"/></svg>