<svg enable-background="new 0 0 28 28" viewBox="0 0 28 28" xmlns="http://www.w3.org/2000/svg"><path d="m5.3 19.14c-.76 0-1.38-.62-1.38-1.38s.62-1.38 1.38-1.38 1.38.62 1.38 1.38-.62 1.38-1.38 1.38zm0-2c-.34 0-.62.28-.62.62s.28.62.62.62.62-.28.62-.62-.28-.62-.62-.62z" fill="#03dac6"/><path d="m14 9.84c-1.45 0-2.64 1.18-2.64 2.64 0 .44.11.87.32 1.25l2.18 3.94c.03.05.08.09.14.09s.12-.03.14-.09l2.18-3.94c.21-.38.32-.82.32-1.25 0-1.46-1.19-2.64-2.64-2.64zm0 3.96c-.73 0-1.32-.59-1.32-1.32s.59-1.32 1.32-1.32 1.32.59 1.32 1.32-.59 1.32-1.32 1.32z" fill="#fff"/><g fill="#03dac6"><path d="m10.28 18.06-6.36-3.75v-1.71l6.36-3.75v2.46l-3.85 2.14 3.85 2.14zm-5.6-4.18 4.83 2.84v-.67l-4.23-2.35v-.48l4.23-2.35v-.67l-4.83 2.84z"/><path d="m17.72 18.06v-2.46l3.85-2.14-3.85-2.14v-2.46l6.36 3.75v1.71zm.77-2.01v.67l4.83-2.84v-.83l-4.83-2.84v.67l4.23 2.35v.48z"/></g></svg>