<svg enable-background="new 0 0 28 28" viewBox="0 0 28 28" xmlns="http://www.w3.org/2000/svg"><path d="m5.33 13.86c-.76 0-1.38-.62-1.38-1.38s.62-1.38 1.38-1.38 1.38.62 1.38 1.38-.62 1.38-1.38 1.38zm0-1.99c-.34 0-.62.28-.62.62s.28.62.62.62.62-.28.62-.62-.28-.62-.62-.62z" fill="#03dac6"/><path d="m21.24 21.08c-.76 0-1.38-.62-1.38-1.38s.62-1.38 1.38-1.38 1.38.62 1.38 1.38-.62 1.38-1.38 1.38zm0-2c-.34 0-.62.28-.62.62s.28.62.62.62.62-.28.62-.62-.28-.62-.62-.62z" fill="#03dac6"/><path d="m25.17 6.82c-.2-.33-.56-.51-1.01-.51h-6.46c.2.24.37.5.52.77h5.93c.1 0 .28.02.35.14.06.1.06.31-.09.6l-7.74 14.29c-.32.6-1.09 1.1-1.67 1.1h-11.15c-.1 0-.28-.02-.35-.14-.06-.1-.06-.31.09-.6l5.59-10.33c-.16-.28-.29-.57-.39-.88l-5.88 10.85c-.27.5-.3.99-.08 1.36.2.33.56.51 1.01.51h11.16c.86 0 1.89-.66 2.34-1.5l7.74-14.29c.27-.51.3-1 .09-1.37z" fill="#fff"/><path d="m13.69 15.16c-3.07 0-5.57-2.5-5.57-5.57s2.5-5.57 5.57-5.57 5.57 2.5 5.57 5.57-2.5 5.57-5.57 5.57zm0-10.37c-2.65 0-4.8 2.15-4.8 4.8s2.15 4.8 4.8 4.8 4.8-2.15 4.8-4.8-2.15-4.8-4.8-4.8z" fill="#fff"/><g fill="#03dac6"><path d="m7.65 17.15h10.1v.77h-10.1z"/><path d="m6.33 19.59h10.1v.77h-10.1z"/></g></svg>