<svg enable-background="new 0 0 28 28" viewBox="0 0 28 28" xmlns="http://www.w3.org/2000/svg"><g fill="#03dac6"><path d="m8.68 20.28c-.76 0-1.38-.62-1.38-1.38s.62-1.38 1.38-1.38 1.38.62 1.38 1.38-.62 1.38-1.38 1.38zm0-1.99c-.34 0-.62.28-.62.62s.28.62.62.62.62-.28.62-.62c-.01-.35-.29-.62-.62-.62z"/><path d="m18.52 7.79c-.76 0-1.38-.62-1.38-1.38s.62-1.38 1.38-1.38 1.38.62 1.38 1.38-.62 1.38-1.38 1.38zm0-2c-.34 0-.62.28-.62.62s.28.62.62.62.62-.28.62-.62-.28-.62-.62-.62z"/><path d="m9.37 15.8c-1.94 0-3.52-1.58-3.52-3.52s1.58-3.52 3.52-3.52 3.52 1.58 3.52 3.52-1.58 3.52-3.52 3.52zm0-6.26c-1.52 0-2.75 1.23-2.75 2.75s1.23 2.75 2.75 2.75 2.75-1.23 2.75-2.75-1.24-2.75-2.75-2.75z"/></g><path d="m20.47 15.92h-3.91c-.92 0-1.67-.75-1.67-1.67v-3.91c0-.92.75-1.67 1.67-1.67h3.91c.92 0 1.67.75 1.67 1.67v3.91c.01.92-.74 1.67-1.67 1.67zm-3.9-6.49c-.5 0-.91.41-.91.91v3.91c0 .5.41.91.91.91h3.91c.5 0 .91-.41.91-.91v-3.91c0-.5-.41-.91-.91-.91z" fill="#fff"/><path d="m17.71 22.98h-7.41c-.25 0-.48-.14-.6-.36s-.11-.49.04-.7l3.71-5.52c.13-.19.34-.3.57-.3s.44.11.57.3l3.71 5.52c.14.21.16.48.04.7-.15.22-.38.36-.63.36zm-7.26-.77h7.11l-3.56-5.29z" fill="#fff"/></svg>